<svg width="60" height="60" viewBox="0 0 60 60" fill="none" xmlns="http://www.w3.org/2000/svg">
<path d="M0.5 30C0.5 13.7076 13.7076 0.5 30 0.5C46.2924 0.5 59.5 13.7076 59.5 30C59.5 46.2924 46.2924 59.5 30 59.5C13.7076 59.5 0.5 46.2924 0.5 30Z" fill="#FBFBFB"/>
<path d="M0.5 30C0.5 13.7076 13.7076 0.5 30 0.5C46.2924 0.5 59.5 13.7076 59.5 30C59.5 46.2924 46.2924 59.5 30 59.5C13.7076 59.5 0.5 46.2924 0.5 30Z" stroke="#E7EDED"/>
<path fill-rule="evenodd" clip-rule="evenodd" d="M19.5467 18.6739C19.3276 18.597 19.087 18.6103 18.8777 18.7108C18.6684 18.8114 18.5076 18.9909 18.4307 19.21C18.3539 19.4291 18.3671 19.6697 18.4677 19.879C18.5682 20.0883 18.7478 20.249 18.9668 20.3259L19.2713 20.4321C20.0507 20.7062 20.5628 20.8871 20.9397 21.0726C21.2932 21.2464 21.4483 21.3876 21.551 21.5369C21.656 21.6909 21.7377 21.9032 21.7843 22.3267C21.831 22.7701 21.8333 23.3476 21.8333 24.2109V27.2466C21.8333 30.6789 21.9068 31.8106 22.9183 32.8769C23.9287 33.9432 25.555 33.9432 28.81 33.9432H34.9957C36.8168 33.9432 37.728 33.9432 38.3708 33.4182C39.0148 32.8932 39.1992 32.0019 39.5667 30.2192L40.15 27.3901C40.5548 25.3601 40.7567 24.3462 40.2387 23.6731C39.7207 22.9999 37.952 22.9999 35.9862 22.9999H23.574C23.5691 22.7123 23.5523 22.4251 23.5238 22.1389C23.4608 21.5591 23.3255 21.0306 22.9965 20.5499C22.6652 20.0646 22.2242 19.7542 21.7097 19.5011C21.229 19.2654 20.6177 19.0507 19.899 18.7976L19.5467 18.6739ZM31.1667 25.6249C31.3987 25.6249 31.6213 25.7171 31.7854 25.8812C31.9495 26.0453 32.0417 26.2678 32.0417 26.4999V27.9582H33.5C33.7321 27.9582 33.9546 28.0504 34.1187 28.2145C34.2828 28.3786 34.375 28.6012 34.375 28.8332C34.375 29.0653 34.2828 29.2879 34.1187 29.452C33.9546 29.6161 33.7321 29.7082 33.5 29.7082H32.0417V31.1666C32.0417 31.3986 31.9495 31.6212 31.7854 31.7853C31.6213 31.9494 31.3987 32.0416 31.1667 32.0416C30.9346 32.0416 30.712 31.9494 30.5479 31.7853C30.3839 31.6212 30.2917 31.3986 30.2917 31.1666V29.7082H28.8333C28.6013 29.7082 28.3787 29.6161 28.2146 29.452C28.0505 29.2879 27.9583 29.0653 27.9583 28.8332C27.9583 28.6012 28.0505 28.3786 28.2146 28.2145C28.3787 28.0504 28.6013 27.9582 28.8333 27.9582H30.2917V26.4999C30.2917 26.2678 30.3839 26.0453 30.5479 25.8812C30.712 25.7171 30.9346 25.6249 31.1667 25.6249Z" fill="#868989"/>
<path d="M24.75 37C25.2141 37 25.6592 37.1844 25.9874 37.5126C26.3156 37.8408 26.5 38.2859 26.5 38.75C26.5 39.2141 26.3156 39.6592 25.9874 39.9874C25.6592 40.3156 25.2141 40.5 24.75 40.5C24.2859 40.5 23.8408 40.3156 23.5126 39.9874C23.1844 39.6592 23 39.2141 23 38.75C23 38.2859 23.1844 37.8408 23.5126 37.5126C23.8408 37.1844 24.2859 37 24.75 37ZM35.25 37C35.7141 37 36.1592 37.1844 36.4874 37.5126C36.8156 37.8408 37 38.2859 37 38.75C37 39.2141 36.8156 39.6592 36.4874 39.9874C36.1592 40.3156 35.7141 40.5 35.25 40.5C34.7859 40.5 34.3408 40.3156 34.0126 39.9874C33.6844 39.6592 33.5 39.2141 33.5 38.75C33.5 38.2859 33.6844 37.8408 34.0126 37.5126C34.3408 37.1844 34.7859 37 35.25 37Z" fill="#868989"/>
</svg>
