<svg width="60" height="60" viewBox="0 0 60 60" fill="none" xmlns="http://www.w3.org/2000/svg">
<path d="M0.5 30C0.5 13.7076 13.7076 0.5 30 0.5C46.2924 0.5 59.5 13.7076 59.5 30C59.5 46.2924 46.2924 59.5 30 59.5C13.7076 59.5 0.5 46.2924 0.5 30Z" fill="#FBFBFB"/>
<path d="M0.5 30C0.5 13.7076 13.7076 0.5 30 0.5C46.2924 0.5 59.5 13.7076 59.5 30C59.5 46.2924 46.2924 59.5 30 59.5C13.7076 59.5 0.5 46.2924 0.5 30Z" stroke="#E7EDED"/>
<path d="M29.0432 16.9081C29.2447 16.9081 29.3454 17.0088 29.5468 17.1095C28.3382 17.6131 27.1297 18.9223 26.5254 21.7423L24.3097 22.3466C25.0147 20.3323 26.4247 16.9081 29.0432 16.9081ZM30.1511 17.9152C30.3525 18.5195 30.5539 19.2245 30.5539 20.3323C30.5539 20.433 30.5539 20.433 30.5539 20.5338L27.6332 21.3395C28.2375 19.2245 29.2447 18.3181 30.1511 17.9152ZM32.7696 19.728L31.4603 20.1309C31.4603 20.0302 31.4603 19.9295 31.4603 19.8288C31.4603 18.9223 31.3596 18.2173 31.1582 17.6131C31.8632 17.8145 32.4675 18.7209 32.7696 19.728ZM39.316 21.3395C39.316 21.2387 39.2153 21.138 39.1146 21.138C38.9131 21.138 36.7982 20.9366 36.7982 20.9366C36.7982 20.9366 35.2875 19.4259 35.086 19.3252C34.8846 19.1238 34.5825 19.2245 34.4817 19.2245C34.4817 19.2245 34.1796 19.3252 33.676 19.5266C33.1725 18.1166 32.2661 16.8074 30.7554 16.8074H30.6546C30.2518 16.2031 29.6475 16.0017 29.1439 16.0017C25.5183 15.9009 23.8061 20.433 23.2019 22.7494C22.3962 22.9509 21.5904 23.253 20.684 23.5552C19.8783 23.7566 19.8783 23.8573 19.7776 24.5623C19.6769 25.0659 17.6626 40.9786 17.6626 40.9786L33.676 44L42.3374 42.0864C42.3374 42.0864 39.316 21.5409 39.316 21.3395Z" fill="#868989"/>
<path d="M39.0139 21.1382C38.9131 21.1382 36.7982 20.9367 36.7982 20.9367C36.7982 20.9367 35.2875 19.426 35.086 19.3253C34.9853 19.2246 34.9853 19.2246 34.8846 19.2246L33.6761 44.0001L42.3374 42.0866C42.3374 42.0866 39.316 21.541 39.316 21.3396C39.316 21.2389 39.1146 21.1382 39.0139 21.1382Z" fill="#868989"/>
<path d="M30.7554 25.9723L29.6475 29.1952C29.6475 29.1952 28.7411 28.6916 27.5326 28.6916C25.8204 28.6916 25.7197 29.6987 25.7197 30.0009C25.7197 31.4108 29.5468 32.0151 29.5468 35.4394C29.5468 38.1586 27.8347 39.8708 25.5183 39.8708C22.799 39.8708 21.389 38.1586 21.389 38.1586L22.094 35.7415C22.094 35.7415 23.504 36.9501 24.7126 36.9501C25.5183 36.9501 25.8204 36.3458 25.8204 35.8422C25.8204 33.9287 22.6983 33.828 22.6983 30.7059C22.6983 28.0873 24.6119 25.5695 28.3383 25.5695C30.0504 25.4688 30.7554 25.9723 30.7554 25.9723Z" fill="#FDFFFF"/>
</svg>
