<svg width="60" height="60" viewBox="0 0 60 60" fill="none" xmlns="http://www.w3.org/2000/svg">
<path d="M0.5 30C0.5 13.7076 13.7076 0.5 30 0.5C46.2924 0.5 59.5 13.7076 59.5 30C59.5 46.2924 46.2924 59.5 30 59.5C13.7076 59.5 0.5 46.2924 0.5 30Z" fill="#FBFBFB"/>
<path d="M0.5 30C0.5 13.7076 13.7076 0.5 30 0.5C46.2924 0.5 59.5 13.7076 59.5 30C59.5 46.2924 46.2924 59.5 30 59.5C13.7076 59.5 0.5 46.2924 0.5 30Z" stroke="#E7EDED"/>
<path fill-rule="evenodd" clip-rule="evenodd" d="M41.6666 22.7261L34.2116 37.2744H27.2256L30.3336 31.2404H30.1901C27.6375 34.5806 23.7933 36.7727 18.3333 37.2756V31.3302C18.3333 31.3302 21.8356 31.1319 23.8843 28.9584H18.3333V22.7261H24.5668V27.8629H24.7103L27.2606 22.7261H31.9856V27.8267H32.1291L34.7506 22.7261H41.6666Z" fill="#868989"/>
</svg>
