<svg width="60" height="60" viewBox="0 0 60 60" fill="none" xmlns="http://www.w3.org/2000/svg">
<path d="M0.5 30C0.5 13.7076 13.7076 0.5 30 0.5C46.2924 0.5 59.5 13.7076 59.5 30C59.5 46.2924 46.2924 59.5 30 59.5C13.7076 59.5 0.5 46.2924 0.5 30Z" fill="#FBFBFB"/>
<path d="M0.5 30C0.5 13.7076 13.7076 0.5 30 0.5C46.2924 0.5 59.5 13.7076 59.5 30C59.5 46.2924 46.2924 59.5 30 59.5C13.7076 59.5 0.5 46.2924 0.5 30Z" stroke="#E7EDED"/>
<g clip-path="url(#clip0_30082_109)">
<path fill-rule="evenodd" clip-rule="evenodd" d="M26.098 16.5518C23.3921 17.3401 20.9865 18.9256 19.1951 21.1016C17.4038 23.2775 16.3098 25.9428 16.056 28.7498H22.456C22.8291 24.4783 24.0676 20.3274 26.096 16.5498L26.098 16.5518ZM22.456 31.2498H16.056C16.3093 34.0569 17.4028 36.7225 19.1938 38.8989C20.9848 41.0752 23.3901 42.6611 26.096 43.4498C24.0676 39.6722 22.8291 35.5214 22.456 31.2498ZM29.304 43.9838C26.8792 40.1381 25.3925 35.776 24.964 31.2498H35.034C34.6055 35.776 33.1189 40.1381 30.694 43.9838C30.231 44.0069 29.7671 44.0069 29.304 43.9838ZM33.904 43.4478C36.6096 42.6593 39.0148 41.0736 40.8058 38.8977C42.5967 36.7217 43.6904 34.0566 43.944 31.2498H37.544C37.171 35.5214 35.9325 39.6722 33.904 43.4498V43.4478ZM37.544 28.7498H43.944C43.6908 25.9427 42.5973 23.2771 40.8063 21.1008C39.0153 18.9245 36.6099 17.3386 33.904 16.5498C35.9325 20.3274 37.171 24.4783 37.544 28.7498ZM29.304 16.0158C29.7677 15.9928 30.2323 15.9928 30.696 16.0158C33.1202 19.8618 34.6061 24.2238 35.034 28.7498H24.966C25.4 24.1958 26.89 19.8298 29.304 16.0158Z" fill="#868989"/>
</g>
<defs>
<clipPath id="clip0_30082_109">
<rect width="28" height="28" fill="white" transform="translate(16 16)"/>
</clipPath>
</defs>
</svg>
