<svg width="60" height="60" viewBox="0 0 60 60" fill="none" xmlns="http://www.w3.org/2000/svg">
<path d="M0.5 30C0.5 13.7076 13.7076 0.5 30 0.5C46.2924 0.5 59.5 13.7076 59.5 30C59.5 46.2924 46.2924 59.5 30 59.5C13.7076 59.5 0.5 46.2924 0.5 30Z" fill="#FBFBFB"/>
<path d="M0.5 30C0.5 13.7076 13.7076 0.5 30 0.5C46.2924 0.5 59.5 13.7076 59.5 30C59.5 46.2924 46.2924 59.5 30 59.5C13.7076 59.5 0.5 46.2924 0.5 30Z" stroke="#E7EDED"/>
<path d="M19.99 30.0002C19.99 28.5535 20.305 27.1768 20.8533 25.9168L25.6366 39.0068C23.9429 38.1895 22.5143 36.9106 21.5154 35.3172C20.5164 33.7239 19.9877 31.8808 19.99 30.0002ZM36.755 29.4985C36.755 30.3502 36.4166 31.3418 35.9966 32.7302L34.9933 36.0668L31.3766 25.3335L32.52 25.2168C33.0683 25.1468 32.9983 24.3535 32.4616 24.3885C32.4616 24.3885 30.84 24.5168 29.79 24.5168L27.1533 24.3885C26.6166 24.3535 26.5583 25.1818 27.0833 25.2168L28.145 25.3335L29.7083 29.5802L27.515 36.1485L23.8633 25.3335L25.0183 25.2168C25.555 25.1468 25.485 24.3535 24.9483 24.3885C24.9483 24.3885 23.3266 24.5168 22.2766 24.5168L21.635 24.5052C23.4316 21.7868 26.5 19.9902 30 19.9902C32.6016 19.9902 34.9816 20.9935 36.755 22.6152H36.6266C35.6466 22.6152 34.9466 23.4668 34.9466 24.3885C34.9466 25.2168 35.425 25.9168 35.9266 26.7335C36.3116 27.3985 36.755 28.2502 36.755 29.4985ZM30.175 30.8752L33.255 39.2985L33.325 39.4385C32.2866 39.8118 31.1666 40.0102 30 40.0102C29.02 40.0102 28.075 39.8702 27.1766 39.6018L30.175 30.8752ZM38.785 25.1935C39.5915 26.667 40.0129 28.3204 40.01 30.0002C40.01 33.6868 38.0033 36.9185 35.0283 38.6452L38.085 29.8135C38.6566 28.3902 38.855 27.2468 38.855 26.2318L38.785 25.1935ZM30 18.3335C31.5321 18.3335 33.0492 18.6353 34.4646 19.2216C35.8801 19.8079 37.1662 20.6672 38.2496 21.7506C39.3329 22.8339 40.1923 24.1201 40.7786 25.5355C41.3649 26.951 41.6666 28.4681 41.6666 30.0002C41.6666 33.0944 40.4375 36.0618 38.2496 38.2497C36.0616 40.4377 33.0942 41.6668 30 41.6668C28.4679 41.6668 26.9508 41.3651 25.5353 40.7788C24.1199 40.1925 22.8338 39.3331 21.7504 38.2497C19.5625 36.0618 18.3333 33.0944 18.3333 30.0002C18.3333 26.906 19.5625 23.9385 21.7504 21.7506C23.9383 19.5627 26.9058 18.3335 30 18.3335ZM30 41.1302C36.1366 41.1302 41.13 36.1368 41.13 30.0002C41.13 23.8635 36.1366 18.8702 30 18.8702C23.8633 18.8702 18.87 23.8635 18.87 30.0002C18.87 36.1368 23.8633 41.1302 30 41.1302Z" fill="#868989"/>
</svg>
