<svg width="187" height="40" viewBox="0 0 187 40" fill="none" xmlns="http://www.w3.org/2000/svg">
<g clip-path="url(#clip0_30010_4069)">
<path d="M186.016 17.977V14.7035H181.955V9.6143L181.819 9.65639L178.004 10.8245L177.929 10.8475V14.7035H171.908V12.5556C171.908 11.5553 172.132 10.7899 172.572 10.2794C173.01 9.77501 173.635 9.51865 174.433 9.51865C175.006 9.51865 175.6 9.65392 176.198 9.92063L176.347 9.98748V6.54001L176.277 6.51412C175.72 6.31358 174.961 6.21252 174.021 6.21252C172.837 6.21252 171.761 6.47046 170.822 6.98183C169.883 7.49388 169.144 8.22492 168.627 9.15448C168.111 10.0829 167.849 11.1552 167.849 12.3418V14.7035H165.021V17.977H167.849V31.7675H171.908V17.977H177.929V26.7407C177.929 30.35 179.63 32.1792 182.984 32.1792C183.535 32.1792 184.115 32.1143 184.708 31.9876C185.311 31.8578 185.721 31.7279 185.963 31.5893L186.016 31.5577V28.2539L185.851 28.3633C185.631 28.5105 185.357 28.6304 185.035 28.7195C184.712 28.8105 184.442 28.8562 184.233 28.8562C183.447 28.8562 182.866 28.6441 182.505 28.226C182.14 27.8039 181.955 27.0657 181.955 26.0333V17.977H186.016ZM155.956 28.8565C154.482 28.8565 153.321 28.3674 152.502 27.4041C151.678 26.4358 151.261 25.0554 151.261 23.3016C151.261 21.4923 151.678 20.0761 152.502 19.0907C153.321 18.1119 154.472 17.6151 155.923 17.6151C157.33 17.6151 158.451 18.0896 159.253 19.0261C160.06 19.9674 160.469 21.3723 160.469 23.2028C160.469 25.0559 160.084 26.4792 159.325 27.4313C158.571 28.3764 157.438 28.8565 155.956 28.8565ZM156.136 14.2923C153.325 14.2923 151.092 15.1168 149.501 16.743C147.91 18.3694 147.103 20.6199 147.103 23.4329C147.103 26.1045 147.891 28.2535 149.444 29.8191C150.997 31.3854 153.11 32.1788 155.725 32.1788C158.45 32.1788 160.638 31.3429 162.23 29.6942C163.821 28.0471 164.627 25.818 164.627 23.0707C164.627 20.3572 163.871 18.1922 162.378 16.637C160.885 15.081 158.784 14.2923 156.136 14.2923ZM140.558 14.2923C138.646 14.2923 137.064 14.7818 135.856 15.7471C134.64 16.7181 134.024 17.9918 134.024 19.5329C134.024 20.3339 134.157 21.0456 134.419 21.6491C134.682 22.2547 135.09 22.7877 135.632 23.2352C136.17 23.679 136.999 24.144 138.099 24.6169C139.024 24.9977 139.713 25.32 140.151 25.5739C140.579 25.8226 140.883 26.0729 141.055 26.3164C141.222 26.5548 141.306 26.8809 141.306 27.2838C141.306 28.4301 140.449 28.9878 138.684 28.9878C138.029 28.9878 137.283 28.8512 136.465 28.5814C135.646 28.3119 134.881 27.9246 134.192 27.4278L134.024 27.307V31.219L134.085 31.2478C134.66 31.5132 135.384 31.7369 136.238 31.9131C137.09 32.0894 137.863 32.1792 138.536 32.1792C140.611 32.1792 142.282 31.6872 143.501 30.7162C144.728 29.7385 145.35 28.4348 145.35 26.8402C145.35 25.69 145.015 24.7035 144.355 23.9081C143.7 23.119 142.563 22.3947 140.976 21.7544C139.712 21.2466 138.903 20.8251 138.569 20.5016C138.247 20.189 138.083 19.7469 138.083 19.1872C138.083 18.6909 138.285 18.2934 138.699 17.9713C139.117 17.6477 139.698 17.4831 140.427 17.4831C141.103 17.4831 141.795 17.5901 142.483 17.7996C143.171 18.0091 143.775 18.2898 144.279 18.6333L144.445 18.7467V15.0357L144.382 15.0082C143.916 14.8086 143.303 14.6377 142.558 14.4991C141.816 14.3618 141.143 14.2923 140.558 14.2923ZM123.441 28.8565C121.968 28.8565 120.806 28.3674 119.987 27.4041C119.163 26.4358 118.747 25.0559 118.747 23.3016C118.747 21.4923 119.164 20.0761 119.988 19.0907C120.806 18.1119 121.957 17.6151 123.408 17.6151C124.815 17.6151 125.936 18.0896 126.738 19.0261C127.545 19.9674 127.954 21.3723 127.954 23.2028C127.954 25.0559 127.569 26.4792 126.81 27.4313C126.056 28.3764 124.923 28.8565 123.441 28.8565ZM123.622 14.2923C120.81 14.2923 118.577 15.1168 116.986 16.743C115.395 18.3694 114.588 20.6199 114.588 23.4329C114.588 26.1056 115.376 28.2535 116.929 29.8191C118.482 31.3854 120.596 32.1788 123.211 32.1788C125.935 32.1788 128.124 31.3429 129.715 29.6942C131.306 28.0471 132.112 25.818 132.112 23.0707C132.112 20.3572 131.356 18.1922 129.863 16.637C128.369 15.081 126.269 14.2923 123.622 14.2923ZM108.426 17.6585V14.7035H104.416V31.7671H108.426V23.0384C108.426 21.5541 108.762 20.3348 109.425 19.4138C110.08 18.5039 110.953 18.0427 112.019 18.0427C112.38 18.0427 112.785 18.1023 113.224 18.2203C113.659 18.3375 113.974 18.4647 114.16 18.5986L114.328 18.7208V14.6742L114.263 14.6463C113.89 14.4874 113.361 14.4073 112.693 14.4073C111.685 14.4073 110.783 14.7314 110.011 15.3695C109.333 15.9304 108.843 16.6994 108.468 17.6585H108.426ZM97.2347 14.2923C95.3951 14.2923 93.7541 14.6873 92.3582 15.4656C90.9596 16.2457 89.8781 17.3596 89.1421 18.776C88.4096 20.189 88.0377 21.8395 88.0377 23.6799C88.0377 25.2921 88.3983 26.7718 89.1111 28.0756C89.8244 29.3817 90.834 30.4036 92.1118 31.1123C93.3879 31.8202 94.8627 32.1792 96.4956 32.1792C98.4012 32.1792 100.028 31.7977 101.333 31.0457L101.385 31.0153V27.338L101.217 27.4612C100.626 27.8919 99.9658 28.2359 99.2552 28.4837C98.5465 28.7313 97.9002 28.8564 97.3338 28.8564C95.7603 28.8564 94.4973 28.3635 93.5803 27.3921C92.6614 26.4191 92.1954 25.0531 92.1954 23.334C92.1954 21.604 92.6814 20.2029 93.639 19.169C94.5935 18.1381 95.859 17.6153 97.3999 17.6153C98.718 17.6153 100.002 18.062 101.218 18.9443L101.385 19.0665V15.1919L101.331 15.1613C100.874 14.9051 100.25 14.6936 99.476 14.5331C98.7052 14.3731 97.9513 14.2923 97.2347 14.2923ZM85.2759 14.7035H81.2658V31.7671H85.2759V14.7035ZM83.3117 7.43428C82.6518 7.43428 82.0762 7.65913 81.6033 8.10477C81.1284 8.55177 80.8874 9.11446 80.8874 9.77843C80.8874 10.432 81.1255 10.9844 81.5957 11.4194C82.0629 11.8532 82.6403 12.0731 83.3117 12.0731C83.9829 12.0731 84.5626 11.8532 85.0355 11.4201C85.5115 10.9844 85.7528 10.432 85.7528 9.77843C85.7528 9.13764 85.518 8.58058 85.055 8.12278C84.5927 7.66588 84.0061 7.43428 83.3117 7.43428ZM73.3066 13.4446V31.767H77.399V7.95681H71.7351L64.5357 25.6423L57.5492 7.95681H51.6547V31.767H55.5004V13.4428H55.6326L63.0101 31.767H65.9123L73.1746 13.4446H73.3066Z" fill="#868989"/>
<path d="M18.9261 18.8824H0.0621338V0H18.9261V18.8824Z" fill="#868989"/>
<path d="M39.7542 18.8824H20.8904V0H39.7542V18.8824Z" fill="#868989"/>
<path d="M18.9257 39.7383H0.0621338V20.8558H18.9257V39.7383Z" fill="#868989"/>
<path d="M39.7542 39.7383H20.8904V20.8558H39.7542V39.7383Z" fill="#868989"/>
</g>
<defs>
<clipPath id="clip0_30010_4069">
<rect width="186" height="40" fill="white" transform="translate(0.0621338)"/>
</clipPath>
</defs>
</svg>
