<svg width="141" height="40" viewBox="0 0 141 40" fill="none" xmlns="http://www.w3.org/2000/svg">
<path d="M15.8587 1.26539C16.1394 1.26539 16.2798 1.40573 16.5604 1.54607C14.8763 2.24779 13.1922 4.07225 12.3502 8.00185L9.26262 8.84391C10.245 6.03705 12.2098 1.26539 15.8587 1.26539ZM17.4025 2.66882C17.6832 3.51087 17.9639 4.49327 17.9639 6.03705C17.9639 6.17739 17.9639 6.17739 17.9639 6.31773L13.8939 7.44048C14.736 4.49327 16.1394 3.23019 17.4025 2.66882ZM21.0514 5.19499L19.227 5.75636C19.227 5.61602 19.227 5.47567 19.227 5.33533C19.227 4.07225 19.0866 3.08984 18.8059 2.24779C19.7883 2.52847 20.6304 3.79156 21.0514 5.19499ZM30.1737 7.44048C30.1737 7.30013 30.0334 7.15979 29.893 7.15979C29.6123 7.15979 26.6651 6.8791 26.6651 6.8791C26.6651 6.8791 24.56 4.77396 24.2793 4.63362C23.9986 4.35293 23.5776 4.49327 23.4372 4.49327C23.4372 4.49327 23.0162 4.63362 22.3145 4.9143C21.6128 2.9495 20.3497 1.12504 18.2446 1.12504H18.1042C17.5428 0.282986 16.7008 0.00230061 15.9991 0.00230061C10.9467 -0.138042 8.56091 6.17739 7.71885 9.40528C6.59611 9.68596 5.47337 10.107 4.21028 10.528C3.08754 10.8087 3.08754 10.949 2.9472 11.9314C2.80686 12.6332 0 34.8073 0 34.8073L22.3145 39.0176L34.384 36.3511C34.384 36.3511 30.1737 7.72116 30.1737 7.44048Z" fill="#868989"/>
<path d="M29.7527 7.1598C29.6123 7.1598 26.6651 6.87912 26.6651 6.87912C26.6651 6.87912 24.56 4.77397 24.2793 4.63363C24.139 4.49329 24.139 4.49329 23.9986 4.49329L22.3145 39.0176L34.384 36.3511C34.384 36.3511 30.1737 7.72117 30.1737 7.44049C30.1737 7.30014 29.893 7.1598 29.7527 7.1598Z" fill="#868989"/>
<path d="M18.2446 13.8962L16.7008 18.3872C16.7008 18.3872 15.4377 17.6855 13.7536 17.6855C11.3678 17.6855 11.2274 19.0889 11.2274 19.5099C11.2274 21.4747 16.5605 22.3168 16.5605 27.0884C16.5605 30.8777 14.1746 33.2635 10.9467 33.2635C7.15749 33.2635 5.19269 30.8777 5.19269 30.8777L6.17509 27.5095C6.17509 27.5095 8.13989 29.1936 9.824 29.1936C10.9467 29.1936 11.3678 28.3515 11.3678 27.6498C11.3678 24.9833 7.01714 24.843 7.01714 20.4923C7.01714 16.8434 9.68366 13.3348 14.8763 13.3348C17.2622 13.1945 18.2446 13.8962 18.2446 13.8962Z" fill="#FDFFFF"/>
<path d="M48.5586 22.1765C47.2955 21.4748 46.7341 20.9134 46.7341 20.2117C46.7341 19.2293 47.5762 18.6679 48.9796 18.6679C50.5234 18.6679 51.9268 19.3696 51.9268 19.3696L53.0496 16.0014C53.0496 16.0014 52.0672 15.1593 49.12 15.1593C44.9097 15.1593 42.1028 17.5452 42.1028 20.9134C42.1028 22.8782 43.5063 24.2816 45.1904 25.264C46.5938 26.1061 47.1552 26.6675 47.1552 27.5095C47.1552 28.3516 46.4534 29.1936 45.05 29.1936C43.0852 29.1936 41.1204 28.2112 41.1204 28.2112L39.9977 31.5795C39.9977 31.5795 41.6818 32.7022 44.629 32.7022C48.8393 32.7022 51.9268 30.5971 51.9268 26.8078C51.9268 24.7027 50.383 23.1589 48.5586 22.1765ZM65.5401 15.019C63.4349 15.019 61.7508 16.0014 60.4877 17.5452L62.3122 8.00184H57.5405L52.9092 32.2812H57.6809L59.2246 24.0009C59.786 20.9134 61.4701 18.9486 63.0139 18.9486C64.1366 18.9486 64.5577 19.6503 64.5577 20.773C64.5577 21.4748 64.5577 22.1765 64.4173 22.8782L62.5929 32.4215H67.3645L69.189 22.5975C69.3293 21.6151 69.4697 20.352 69.4697 19.51C69.4697 16.7031 68.0662 15.019 65.5401 15.019ZM77.7499 28.9129C76.0658 28.9129 75.5044 27.5095 75.5044 25.8254C75.5044 23.1589 76.9078 18.6679 79.434 18.6679C81.1181 18.6679 81.6795 20.0713 81.6795 21.4748C81.6795 24.5623 80.2761 28.9129 77.7499 28.9129ZM80.1357 15.019C74.3817 15.019 70.5924 20.2117 70.5924 25.9657C70.5924 29.6147 72.8379 32.5619 77.1885 32.5619C82.8022 32.5619 86.5915 27.5095 86.5915 21.6151C86.5915 18.2469 84.6267 15.019 80.1357 15.019ZM94.17 29.0533C92.9069 29.0533 92.2052 28.3516 92.2052 28.3516L93.0473 23.8606C93.6086 20.9134 95.1524 18.9486 96.8365 18.9486C98.2399 18.9486 98.8013 20.352 98.8013 21.6151C98.661 24.7027 96.8365 29.0533 94.17 29.0533ZM98.8013 15.019C95.5734 15.019 93.749 17.8258 93.749 17.8258L94.0297 15.2997H89.8194C89.679 16.9838 89.258 19.6503 88.837 21.6151L85.4688 39.0176H90.2404L91.5035 32.0005H91.6438C91.6438 32.0005 92.6262 32.5619 94.4507 32.5619C100.064 32.5619 103.713 26.8078 103.713 21.0537C103.713 17.9662 102.31 15.019 98.8013 15.019ZM110.45 8.28253C108.906 8.28253 107.783 9.54561 107.783 11.0894C107.783 12.4928 108.625 13.4752 110.029 13.4752C111.573 13.4752 112.836 12.4928 112.836 10.6684C112.836 9.26493 111.853 8.28253 110.45 8.28253ZM103.854 32.2812H108.625L111.853 15.44H107.082L103.854 32.2812ZM123.923 15.44H120.554L120.695 14.598C120.975 12.9138 121.958 11.5104 123.502 11.5104C124.344 11.5104 125.045 11.7911 125.045 11.7911L126.028 8.00184C126.028 8.00184 125.186 7.58081 123.502 7.58081C121.818 7.58081 120.133 8.00184 118.87 9.12458C117.186 10.528 116.484 12.4928 116.063 14.4576L115.923 15.2997H113.678L112.976 18.9486H115.221L112.695 32.2812H117.467L119.993 18.9486H123.221L123.923 15.44ZM135.29 15.44C135.29 15.44 132.343 22.8782 130.94 26.9481C130.799 25.685 129.817 15.44 129.817 15.44H124.765L127.572 30.8777C127.572 31.1584 127.572 31.4391 127.431 31.7198C126.87 32.8425 125.887 33.8249 124.905 34.5267C124.063 35.2284 122.94 35.6494 122.239 35.9301L123.502 40C124.484 39.8597 126.449 39.0176 128.133 37.4739C130.238 35.5091 132.343 32.2812 134.308 28.0709L140.062 15.5804L135.29 15.44Z" fill="#868989"/>
</svg>
