<svg width="133" height="40" viewBox="0 0 133 40" fill="none" xmlns="http://www.w3.org/2000/svg">
<path fill-rule="evenodd" clip-rule="evenodd" d="M82.1943 31.2807C74.556 36.9617 63.4838 40.0001 53.959 40.0001C40.5903 40.0001 28.5571 35.0045 19.4562 26.702C18.7425 26.052 19.3855 25.1617 20.2405 25.6704C30.0621 31.4432 42.2084 34.9126 54.7574 34.9126C63.2224 34.9126 72.5281 33.1461 81.0849 29.4789C82.378 28.9207 83.4591 30.3268 82.1943 31.2807Z" fill="#868989"/>
<path fill-rule="evenodd" clip-rule="evenodd" d="M85.374 27.6136C84.3989 26.3488 78.9157 27.013 76.4568 27.3098C75.7078 27.4017 75.5948 26.7445 76.266 26.2711C80.6328 23.1692 87.7976 24.0665 88.6313 25.1052C89.4651 26.151 88.4123 33.4006 84.3141 36.8629C83.6852 37.3928 83.0846 37.1102 83.3602 36.4036C84.2858 34.0789 86.3491 28.8784 85.374 27.6136Z" fill="#868989"/>
<path fill-rule="evenodd" clip-rule="evenodd" d="M76.6334 4.36682V1.35675C76.6334 0.897462 76.9725 0.593628 77.3823 0.593628H90.7581C91.182 0.593628 91.5283 0.904528 91.5283 1.35675V3.9358C91.5212 4.36682 91.1608 4.93916 90.5178 5.82946L83.5933 15.8206C86.1652 15.7571 88.8856 16.1457 91.2174 17.4741C91.7473 17.7708 91.8886 18.2089 91.931 18.647V21.862C91.931 22.3001 91.4435 22.8159 90.9418 22.5474C86.8294 20.3711 81.3675 20.1379 76.8171 22.5757C76.3578 22.83 75.8702 22.3213 75.8702 21.8832V18.8237C75.8702 18.3361 75.8773 17.4953 76.3578 16.7533L84.3846 5.12994H77.4035C76.9725 5.12994 76.6334 4.81904 76.6334 4.36682Z" fill="#868989"/>
<path fill-rule="evenodd" clip-rule="evenodd" d="M27.8576 23.1833H23.7876C23.399 23.155 23.0951 22.8653 23.0598 22.4837V1.40616C23.0598 0.982205 23.4131 0.650108 23.8441 0.650108H27.6385C28.0342 0.664239 28.3451 0.975138 28.3804 1.3567V4.1124H28.4511C29.4403 1.44856 31.2986 0.204956 33.807 0.204956C36.3508 0.204956 37.9477 1.44856 39.0853 4.1124C40.0745 1.44856 42.3073 0.204956 44.7027 0.204956C46.4126 0.204956 48.278 0.918611 49.4156 2.50844C50.7016 4.28198 50.4402 6.86104 50.4402 9.11506L50.4331 22.4272C50.4331 22.8441 50.0869 23.1833 49.6488 23.1833H45.5859C45.1831 23.155 44.851 22.83 44.851 22.4272V11.249C44.851 10.3587 44.9358 8.13997 44.738 7.29912C44.4342 5.88594 43.5297 5.48319 42.3497 5.48319C41.3675 5.48319 40.3359 6.14738 39.919 7.21433C39.4951 8.27422 39.5375 10.0548 39.5375 11.249V22.4272C39.5375 22.8441 39.1913 23.1833 38.7532 23.1833H34.6903C34.2805 23.155 33.9625 22.83 33.9625 22.4272L33.9554 11.249C33.9554 8.89602 34.337 5.44079 31.447 5.44079C28.5288 5.44079 28.6419 8.81123 28.6419 11.249V22.4272C28.6419 22.8441 28.2956 23.1833 27.8576 23.1833Z" fill="#868989"/>
<path fill-rule="evenodd" clip-rule="evenodd" d="M103.039 0.204956C109.073 0.204956 112.344 5.44079 112.344 12.0898C112.344 18.5268 108.734 23.6214 103.039 23.6214C97.1104 23.6214 93.8883 18.3926 93.8883 11.8708C93.8883 5.30654 97.1527 0.204956 103.039 0.204956ZM103.074 4.50809C100.078 4.50809 99.8873 8.63458 99.8873 11.2066C99.8873 13.7786 99.8449 19.2829 103.039 19.2829C106.19 19.2829 106.338 14.8455 106.338 12.1393C106.338 10.3587 106.268 8.23182 105.731 6.55014C105.279 5.08043 104.367 4.50809 103.074 4.50809Z" fill="#868989"/>
<path fill-rule="evenodd" clip-rule="evenodd" d="M120.166 23.1833H116.118C115.708 23.155 115.383 22.83 115.383 22.4272V1.3355C115.411 0.953943 115.75 0.650108 116.16 0.650108H119.933C120.287 0.664239 120.583 0.911545 120.661 1.23658V4.4657H120.732C121.876 1.58281 123.466 0.204956 126.278 0.204956C128.101 0.204956 129.882 0.869152 131.027 2.69215C132.094 4.37384 132.094 7.21433 132.094 9.24931V22.5191C132.044 22.8936 131.712 23.1833 131.309 23.1833H127.225C126.858 23.155 126.547 22.8794 126.512 22.5191V11.0723C126.512 8.76883 126.773 5.39133 123.961 5.39133C122.972 5.39133 122.06 6.06259 121.608 7.08008C121.036 8.36607 120.965 9.65207 120.965 11.0723V22.4272C120.958 22.8441 120.605 23.1833 120.166 23.1833Z" fill="#868989"/>
<path fill-rule="evenodd" clip-rule="evenodd" d="M65.9709 13.1143C65.9709 14.7183 66.0133 16.0537 65.2078 17.474C64.5648 18.6257 63.5332 19.3394 62.3956 19.3394C60.834 19.3394 59.9155 18.1382 59.9155 16.3646C59.9155 12.8599 63.0245 12.224 65.9709 12.224V13.1143ZM70.0762 23.1267C69.8007 23.3669 69.412 23.3881 69.1153 23.2256C67.7586 22.0951 67.5184 21.5651 66.7765 20.4911C64.5507 22.7875 62.9609 23.4729 60.0709 23.4729C56.644 23.4729 53.9872 21.3461 53.9872 17.0783C53.9872 13.7432 55.7678 11.468 58.3256 10.3586C60.5302 9.37645 63.6109 9.20687 65.9709 8.93837V8.40136C65.9709 7.42626 66.0416 6.26746 65.4763 5.42661C64.9817 4.67056 64.0349 4.35966 63.194 4.35966C61.6395 4.35966 60.2617 5.16518 59.9225 6.82566C59.8519 7.19309 59.5834 7.56052 59.2159 7.57465L55.2732 7.15069C54.9411 7.07297 54.5666 6.80447 54.6655 6.28865C55.5699 1.45558 59.8943 0 63.7593 0C65.7448 0 68.3309 0.537009 69.8854 2.04911C71.871 3.91451 71.6802 6.40171 71.6802 9.11502V15.5167C71.6802 17.4386 72.4716 18.2795 73.2135 19.3182C73.4749 19.6927 73.5314 20.1378 73.1994 20.4134C72.3656 21.1129 70.8888 22.413 70.0762 23.1408V23.1267Z" fill="#868989"/>
<path fill-rule="evenodd" clip-rule="evenodd" d="M12.6446 13.1143C12.6446 14.7183 12.68 16.0537 11.8815 17.474C11.2385 18.6257 10.214 19.3394 9.0693 19.3394C7.50774 19.3394 6.59624 18.1382 6.59624 16.3646C6.59624 12.8599 9.70523 12.224 12.6446 12.224V13.1143ZM16.7429 23.1267C16.4744 23.3669 16.0857 23.3881 15.789 23.2256C14.4323 22.0951 14.1921 21.5651 13.4502 20.4911C11.2173 22.7875 9.64164 23.4729 6.74462 23.4729C3.32473 23.4729 0.660889 21.3461 0.660889 17.0783C0.660889 13.7432 2.44856 11.468 4.99228 10.3586C7.20391 9.37645 10.2846 9.20687 12.6446 8.93837V8.40136C12.6446 7.42626 12.7153 6.26746 12.15 5.42661C11.6554 4.67056 10.7015 4.35966 9.86775 4.35966C8.32032 4.35966 6.9354 5.16518 6.59624 6.82566C6.52558 7.19309 6.25708 7.56052 5.88965 7.57465L1.94688 7.15069C1.61479 7.07297 1.24736 6.80447 1.33921 6.28865C2.25071 1.45558 6.56798 0 10.433 0C12.4185 0 14.9976 0.537009 16.5662 2.04911C18.5447 3.91451 18.3539 6.40171 18.3539 9.11502V15.5167C18.3539 17.4386 19.1453 18.2795 19.8872 19.3182C20.1486 19.6927 20.2052 20.1378 19.8731 20.4134C19.0463 21.1129 17.5696 22.413 16.757 23.1408L16.7429 23.1267Z" fill="#868989"/>
</svg>
