<svg width="138" height="40" viewBox="0 0 138 40" fill="none" xmlns="http://www.w3.org/2000/svg">
<path d="M17.4895 0.00116864C13.6314 0.0598553 9.87445 2.32955 8.14857 6.95363C0.939224 8.463 -2.82135 17.5577 2.71878 23.588C0.377282 31.2234 6.83773 38.1401 14.4127 36.6306C19.6219 42.2624 28.8726 40.6867 31.6186 33.0074C39.0336 31.3689 42.4103 22.7052 37.0107 16.3379C39.1947 9.17349 33.5323 1.92367 25.3473 3.34915C23.1741 1.0929 20.3049 -0.0416571 17.4895 0.00116864ZM17.5765 2.62127C19.9445 2.59387 21.3059 3.39781 22.5367 4.30974L14.4689 8.99829C13.7055 9.42384 13.6591 10.0819 13.6978 10.7676L13.6462 20.9392L10.1977 19.0052L10.2083 9.65536C10.4362 8.02233 10.9397 6.4951 12.0386 5.1966C13.231 3.94056 14.6485 3.0056 16.4975 2.68603C16.8794 2.64607 17.2382 2.62518 17.5765 2.62127ZM27.4961 5.73702C27.903 5.73916 28.3153 5.77542 28.7338 5.85104C30.4177 6.25565 31.9362 7.01579 33.1374 8.45728C34.942 10.9435 34.9501 12.76 34.7508 14.4992L26.6566 9.85657C25.9064 9.40819 25.3132 9.69707 24.7387 10.0735L15.9041 15.1146L15.8548 11.1611L23.9572 6.49543C25.1034 6.03103 26.2754 5.73059 27.4961 5.73702ZM7.65994 9.79318L7.68638 19.1243C7.67318 19.9982 8.21993 20.3674 8.83316 20.6767L17.6162 25.8071L14.217 27.8266L6.12517 23.1426C5.14993 22.3822 4.30371 21.5173 3.69897 20.457C3.49739 20.1036 3.3227 19.7283 3.17893 19.3281C2.68736 17.6674 2.58639 15.9723 3.23413 14.2113C4.48497 11.4054 6.05408 10.4902 7.65994 9.79318ZM25.529 12.1555L33.6208 16.8396C34.9211 17.8534 35.992 19.0531 36.567 20.654C37.0586 22.3147 37.1596 24.0097 36.5118 25.7708C36.3555 26.1215 36.1941 26.4427 36.0284 26.7376C34.8681 28.802 33.4911 29.5791 32.086 30.1891L32.0594 20.8579C32.0727 19.9839 31.526 19.6148 30.9128 19.3055L22.1297 14.175L25.529 12.1555ZM19.787 15.4382L23.766 17.6349L23.834 22.1452L19.923 24.4587L15.9439 22.2619L15.8759 17.7517L19.787 15.4382ZM26.045 19.0426L29.4935 20.9767L29.4829 30.3264C29.312 31.5512 28.9861 32.7164 28.3703 33.7703C28.165 34.1216 27.9274 34.4606 27.6527 34.7852C26.4603 36.0413 25.0428 36.9762 23.1938 37.2958C20.1384 37.6155 18.5612 36.7142 17.1547 35.672L25.2224 30.9835C25.9859 30.558 26.0322 29.8999 25.9935 29.2142L26.045 19.0426ZM23.7894 24.8502L23.8387 28.8037L15.7363 33.4694C14.2081 34.0886 12.6337 34.4162 10.9597 34.1137C9.27578 33.7091 7.75733 32.949 6.55607 31.5075C6.3305 31.1967 6.13299 30.8965 5.96044 30.6055C4.75271 28.5685 4.76823 26.9874 4.9426 25.4656L13.0369 30.1082C13.7871 30.5566 14.3803 30.2677 14.9547 29.8913L23.7894 24.8502Z" fill="#868989"/>
<g clip-path="url(#clip0_30010_4077)">
<path fill-rule="evenodd" clip-rule="evenodd" d="M137.295 8.27826H134.489C134.415 8.27826 134.345 8.30757 134.293 8.35976C134.241 8.41194 134.211 8.48272 134.211 8.55652V32.4243C134.211 32.4981 134.241 32.5689 134.293 32.6211C134.345 32.6733 134.415 32.7026 134.489 32.7026H137.295C137.368 32.7026 137.439 32.6733 137.491 32.6211C137.543 32.5689 137.572 32.4981 137.572 32.4243V8.55652C137.572 8.48272 137.543 8.41194 137.491 8.35976C137.439 8.30757 137.368 8.27826 137.295 8.27826ZM123.26 8C115.681 8 115.681 10.1468 115.681 20.4883V32.423C115.681 32.4968 115.71 32.5675 115.762 32.6197C115.814 32.6719 115.885 32.7012 115.958 32.7012H119.048C119.121 32.7012 119.192 32.6719 119.244 32.6197C119.296 32.5675 119.325 32.4968 119.325 32.423V23.5423H127.185V32.423C127.185 32.4968 127.214 32.5675 127.266 32.6197C127.318 32.6719 127.388 32.7012 127.462 32.7012H130.55C130.623 32.7012 130.694 32.6719 130.746 32.6197C130.798 32.5675 130.827 32.4968 130.827 32.423V20.4883C130.827 10.2122 130.827 8 123.247 8M119.318 20.4883C119.318 11.0525 119.318 11.0525 123.247 11.0525C127.176 11.0525 127.178 11.0525 127.178 20.4883H119.318ZM90.9674 14.6602C84.7906 14.6602 84.7906 16.2351 84.7906 23.8191C84.7906 31.4031 84.7906 32.9781 90.9674 32.9781C95.7756 32.9781 96.8391 31.9944 97.0748 28C97.077 27.9621 97.0715 27.9241 97.0586 27.8884C97.0457 27.8527 97.0256 27.82 96.9997 27.7924C96.9737 27.7647 96.9424 27.7427 96.9076 27.7277C96.8728 27.7127 96.8353 27.705 96.7975 27.705H93.9843C93.9142 27.7048 93.8467 27.7313 93.7952 27.779C93.7438 27.8268 93.7123 27.8923 93.707 27.9624C93.5351 30.2024 92.9528 30.2024 90.9729 30.2024C88.3386 30.2024 88.1764 30.2024 88.1653 24.9294H96.8793C96.9528 24.9294 97.0233 24.9001 97.0754 24.8479C97.1274 24.7957 97.1566 24.7249 97.1566 24.6511V23.8163C97.1566 16.2796 97.1566 14.6574 90.9812 14.6574M88.1764 22.151C88.2 17.4344 88.4426 17.433 90.9812 17.433C93.5199 17.433 93.7542 17.433 93.7847 22.151H88.1764ZM59.2588 8C51.6804 8 51.6804 10.1468 51.6804 20.4883C51.6804 30.8299 51.6804 32.9781 59.2588 32.9781C66.8373 32.9781 66.8386 30.7659 66.8386 20.4883C66.8386 10.2108 66.8386 8 59.2588 8ZM59.2588 29.9256C55.3296 29.9256 55.3296 29.9256 55.3296 20.4883C55.3296 11.0511 55.3296 11.0525 59.2588 11.0525C63.1881 11.0525 63.1881 11.0525 63.1881 20.4883C63.1881 29.9242 63.1881 29.9256 59.2588 29.9256ZM106.137 14.6602C104.243 14.6602 103.261 15.0483 102.754 16.288L102.313 15.2C102.282 15.1219 102.227 15.0552 102.158 15.0085C102.088 14.9618 102.006 14.9374 101.922 14.9384H100.243C100.169 14.9384 100.099 14.9678 100.047 15.0199C99.9948 15.0721 99.9655 15.1429 99.9655 15.2167V32.4243C99.9655 32.4981 99.9948 32.5689 100.047 32.6211C100.099 32.6733 100.169 32.7026 100.243 32.7026H103.049C103.123 32.7026 103.193 32.6733 103.245 32.6211C103.297 32.5689 103.326 32.4981 103.326 32.4243V23.8191C103.326 17.4358 103.326 17.4358 106.133 17.4358C108.939 17.4358 108.94 17.4358 108.94 23.8191V32.423C108.94 32.4968 108.969 32.5675 109.021 32.6197C109.073 32.6719 109.144 32.7012 109.217 32.7012H112.025C112.099 32.7012 112.169 32.6719 112.221 32.6197C112.273 32.5675 112.302 32.4968 112.302 32.423V23.8191C112.302 16.2351 112.302 14.6602 106.126 14.6602M75.8105 14.6602C73.9166 14.6602 72.9349 15.0483 72.4275 16.288L71.9866 15.2C71.9553 15.1219 71.9012 15.0552 71.8314 15.0085C71.7617 14.9618 71.6795 14.9374 71.5956 14.9384H69.9263C69.8528 14.9384 69.7822 14.9678 69.7302 15.0199C69.6782 15.0721 69.649 15.1429 69.649 15.2167V38.8077C69.649 38.8815 69.6782 38.9522 69.7302 39.0044C69.7822 39.0566 69.8528 39.0859 69.9263 39.0859H72.7339C72.8074 39.0859 72.878 39.0566 72.93 39.0044C72.982 38.9522 73.0112 38.8815 73.0112 38.8077V32.231C73.8167 32.8328 74.8219 33.1008 75.8188 32.9795C81.9941 32.9795 81.9941 31.4059 81.9941 23.8205C81.9941 16.2351 81.9941 14.6616 75.8188 14.6616M75.8188 30.2038C73.0112 30.2038 73.0112 30.2038 73.0112 23.8205C73.0112 17.4372 73.0112 17.4372 75.8188 17.4372C78.6264 17.4372 78.6264 17.4372 78.6264 23.8205C78.6264 30.2038 78.6264 30.2038 75.8188 30.2038Z" fill="#868989"/>
</g>
<defs>
<clipPath id="clip0_30010_4077">
<rect width="86" height="32" fill="white" transform="translate(51.6609 8)"/>
</clipPath>
</defs>
</svg>
