<svg width="122" height="40" viewBox="0 0 122 40" fill="none" xmlns="http://www.w3.org/2000/svg">
<g clip-path="url(#clip0_30010_4055)">
<path d="M118.2 24.4457L121.584 26.7003C120.486 28.3169 117.859 31.0907 113.316 31.0907C107.676 31.0907 103.475 26.73 103.475 21.1826C103.475 15.2795 107.72 11.2748 112.841 11.2748C117.992 11.2748 120.516 15.3684 121.332 17.5784L121.777 18.7057L108.507 24.1936C109.516 26.1812 111.09 27.1898 113.316 27.1898C115.543 27.1898 117.087 26.0922 118.2 24.4457ZM107.795 20.8714L116.656 17.1929C116.166 15.9619 114.712 15.0869 112.975 15.0869C110.763 15.0869 107.691 17.0448 107.795 20.8714Z" fill="#868989"/>
<path d="M97.0775 1.17407H101.352V30.186H97.0775V1.17407Z" fill="#868989"/>
<path d="M90.3384 12.046H94.4649V29.6667C94.4649 36.9788 90.1454 39.9898 85.039 39.9898C80.2298 39.9898 77.3354 36.7564 76.2517 34.1312L80.0368 32.5588C80.7194 34.1755 82.3672 36.0891 85.039 36.0891C88.3194 36.0891 90.3384 34.0569 90.3384 30.26V28.8362H90.1899C89.2101 30.0226 87.3399 31.0905 84.9649 31.0905C80.007 31.0905 75.4646 26.7743 75.4646 21.2124C75.4646 15.6205 80.007 11.26 84.9649 11.26C87.3251 11.26 89.2101 12.3131 90.1899 13.47H90.3384V12.046ZM90.635 21.2124C90.635 17.7119 88.3047 15.1607 85.3359 15.1607C82.3374 15.1607 79.814 17.7119 79.814 21.2124C79.814 24.6681 82.3374 27.1748 85.3359 27.1748C88.3049 27.1898 90.6353 24.6681 90.6353 21.2124" fill="#868989"/>
<path d="M51.9968 21.1381C51.9968 26.8485 47.5438 31.0459 42.0812 31.0459C36.6188 31.0459 32.1656 26.8338 32.1656 21.1381C32.1656 15.3981 36.6188 11.2155 42.0812 11.2155C47.5438 11.2155 51.9968 15.3981 51.9968 21.1381ZM47.6624 21.1381C47.6624 17.5785 45.0795 15.1309 42.0812 15.1309C39.0829 15.1309 36.4999 17.5785 36.4999 21.1381C36.4999 24.6681 39.0829 27.1452 42.0812 27.1452C45.0797 27.1452 47.6624 24.6681 47.6624 21.1381Z" fill="#868989"/>
<path d="M73.6539 21.1826C73.6539 26.8931 69.2007 31.0905 63.7383 31.0905C58.2757 31.0905 53.8227 26.8929 53.8227 21.1826C53.8227 15.4426 58.2757 11.2748 63.7383 11.2748C69.2007 11.2748 73.6539 15.4279 73.6539 21.1826ZM69.3046 21.1826C69.3046 17.6231 66.7218 15.1755 63.7233 15.1755C60.7248 15.1755 58.142 17.6231 58.142 21.1826C58.142 24.7126 60.725 27.1898 63.7233 27.1898C66.7366 27.1898 69.3046 24.6979 69.3046 21.1826Z" fill="#868989"/>
<path d="M15.8671 26.7447C9.64753 26.7447 4.77897 21.7314 4.77897 15.5166C4.77897 9.30211 9.64753 4.28878 15.8671 4.28878C19.2219 4.28878 21.671 5.60878 23.4819 7.29974L26.4657 4.31854C23.9423 1.90093 20.5727 0.0614014 15.8671 0.0614014C7.34693 0.0616395 0.177284 7.0033 0.177284 15.5166C0.177284 24.03 7.34693 30.9719 15.8671 30.9719C20.4688 30.9719 23.9423 29.459 26.6587 26.6409C29.4492 23.8524 30.3101 19.9366 30.3101 16.7626C30.3101 15.7688 30.1914 14.7455 30.0578 13.989H15.8671V18.1124H25.9758C25.6789 20.6933 24.8625 22.4583 23.6601 23.6595C22.2054 25.1281 19.9048 26.7447 15.8671 26.7447Z" fill="#868989"/>
</g>
<defs>
<clipPath id="clip0_30010_4055">
<rect width="122" height="40" fill="white"/>
</clipPath>
</defs>
</svg>
