<svg width="197" height="48" viewBox="0 0 197 48" fill="none" xmlns="http://www.w3.org/2000/svg">
<path d="M63.6162 12.2275C65.4676 12.2275 67.319 12.2275 69.2266 12.2275C69.4403 12.5329 69.6417 12.8307 69.829 13.1506C70.0338 13.4963 70.2444 13.8374 70.4613 14.1756C70.7114 14.5656 70.9565 14.9584 71.1986 15.3534C71.4418 15.75 71.6867 16.1452 71.9358 16.538C72.1259 16.8377 72.3143 17.1383 72.5023 17.4393C72.5325 17.4877 72.5628 17.5361 72.5939 17.586C72.6555 17.6847 72.7171 17.7833 72.7787 17.882C72.9292 18.1231 73.0799 18.3641 73.2306 18.6052C73.2905 18.7011 73.3505 18.797 73.4104 18.8929C73.4549 18.9641 73.4549 18.9641 73.5003 19.0367C74.3545 20.4034 74.3545 20.4034 75.2086 21.77C75.2383 21.8175 75.268 21.865 75.2985 21.9139C75.3584 22.0097 75.4183 22.1055 75.4781 22.2012C75.6291 22.4428 75.7801 22.6844 75.9312 22.9259C76.0815 23.166 76.2316 23.4062 76.3815 23.6465C76.4375 23.7361 76.4934 23.8257 76.5494 23.9153C77.1604 24.8937 77.7467 25.8828 78.2895 26.9009C78.3127 26.9441 78.3358 26.9874 78.3597 27.032C78.9108 28.065 79.4509 29.1159 79.8719 30.2096C79.8784 29.8072 79.8606 29.4072 79.8379 29.0056C79.8315 28.8923 79.8253 28.779 79.8191 28.6656C79.8016 28.3436 79.7837 28.0216 79.7657 27.6996C79.7546 27.5013 79.7438 27.3029 79.733 27.1046C79.729 27.0311 79.7249 26.9576 79.7207 26.8841C79.6228 25.1741 79.6253 23.4624 79.6272 21.7503C79.6276 21.4193 79.6276 21.0882 79.6277 20.7572C79.6278 20.1672 79.6281 19.5773 79.6286 18.9873C79.629 18.4157 79.6293 17.844 79.6295 17.2724C79.6296 17.2366 79.6296 17.2007 79.6296 17.1638C79.6297 16.8518 79.6298 16.5398 79.6299 16.2278C79.6303 14.8944 79.6313 13.561 79.6322 12.2275C81.3412 12.2275 83.0502 12.2275 84.811 12.2275C84.811 20.2979 84.811 28.3682 84.811 36.6831C82.9437 36.6831 81.0765 36.6831 79.1527 36.6831C78.3889 35.4828 78.3889 35.4828 78.1157 35.0437C77.9029 34.7024 77.6894 34.3616 77.4743 34.0217C77.1674 33.5368 76.8635 33.0499 76.5596 32.5631C76.409 32.322 76.2584 32.0809 76.1077 31.8399C76.0478 31.744 75.9878 31.6481 75.9279 31.5522C75.8982 31.5047 75.8685 31.4573 75.838 31.4084C74.1297 28.6751 74.1297 28.6751 74.0397 28.5312C73.9799 28.4355 73.9201 28.3398 73.8603 28.244C73.7086 28.0013 73.5569 27.7586 73.4053 27.5158C73.3441 27.4177 73.2828 27.3196 73.2216 27.2215C73.1916 27.1736 73.1617 27.1256 73.1309 27.0762C72.97 26.8188 72.8082 26.5619 72.6454 26.3056C72.3281 25.8059 72.0215 25.3004 71.7201 24.791C71.6814 24.7257 71.6814 24.7257 71.6418 24.659C70.5039 22.7366 69.5018 20.7482 68.5073 18.749C68.5276 19.3965 68.5564 20.0425 68.6015 20.6887C68.7403 22.7557 68.766 24.8205 68.7658 26.8913C68.7658 26.9268 68.7658 26.9623 68.7658 26.9989C68.7656 27.9132 68.7636 28.8275 68.7609 29.7418C68.7593 30.2725 68.7583 30.8031 68.7576 31.3338C68.7575 31.3906 68.7575 31.3906 68.7574 31.4485C68.7572 31.6386 68.7569 31.8286 68.7567 32.0186C68.7547 33.5734 68.7512 35.1283 68.7471 36.6831C67.0539 36.6831 65.3607 36.6831 63.6162 36.6831C63.6162 28.6128 63.6162 20.5424 63.6162 12.2275Z" fill="#010A21"/>
<path d="M43.1886 12.2275C48.6005 12.2275 54.0124 12.2275 59.5882 12.2275C59.5882 13.6042 59.5882 14.9809 59.5882 16.3994C55.8379 16.3994 52.0876 16.3994 48.2236 16.3994C48.2236 18.3457 48.2236 20.2921 48.2236 22.2975C51.6891 22.2975 55.1546 22.2975 58.7251 22.2975C58.7251 23.6583 58.7251 25.0192 58.7251 26.4213C55.2596 26.4213 51.7941 26.4213 48.2236 26.4213C48.2236 28.431 48.2236 30.4407 48.2236 32.5113C51.9739 32.5113 55.7242 32.5113 59.5882 32.5113C59.5882 33.888 59.5882 35.2647 59.5882 36.6831C54.1763 36.6831 48.7645 36.6831 43.1886 36.6831C43.1886 28.6128 43.1886 20.5424 43.1886 12.2275Z" fill="#010A21"/>
<path d="M22.809 12.2275C28.2209 12.2275 33.6327 12.2275 39.2086 12.2275C39.2086 13.6042 39.2086 14.9809 39.2086 16.3994C35.4583 16.3994 31.7079 16.3994 27.844 16.3994C27.844 18.3457 27.844 20.2921 27.844 22.2975C31.3095 22.2975 34.7749 22.2975 38.3455 22.2975C38.3455 23.6583 38.3455 25.0192 38.3455 26.4213C34.88 26.4213 31.4145 26.4213 27.844 26.4213C27.844 28.431 27.844 30.4407 27.844 32.5113C31.5943 32.5113 35.3446 32.5113 39.2086 32.5113C39.2086 33.888 39.2086 35.2647 39.2086 36.6831C33.7967 36.6831 28.3849 36.6831 22.809 36.6831C22.809 28.6128 22.809 20.5424 22.809 12.2275Z" fill="#010A21"/>
<path d="M13.4833 12.1641C15.2397 12.1641 16.9961 12.1641 18.8057 12.1641C18.8164 13.947 18.8251 15.7299 18.8302 17.5128C18.8326 18.3409 18.8359 19.169 18.8414 19.9971C18.8467 20.7977 18.8494 21.5983 18.8506 22.3989C18.8515 22.7029 18.8531 23.0068 18.8557 23.3107C18.8858 27.0144 18.0984 30.1782 15.464 32.8922C13.5323 34.8239 10.8632 36.5159 8.03253 36.5402C7.86343 36.5395 7.69433 36.5381 7.52524 36.5361C7.43818 36.5355 7.35112 36.535 7.26143 36.5345C7.04875 36.5331 6.83607 36.531 6.62339 36.5287C6.62476 36.378 6.62614 36.2273 6.62755 36.072C6.63145 35.503 6.62901 34.9342 6.62484 34.3652C6.62389 34.1208 6.62457 33.8763 6.62703 33.632C6.64919 31.2291 6.03064 29.6155 4.49444 27.7763C4.37689 27.6217 4.37689 27.6217 4.25697 27.464C3.18934 26.1407 1.52477 25.4852 0 24.8195C0.0390307 24.7024 0.0780614 24.5853 0.118275 24.4646C0.403162 24.3279 0.682043 24.2094 0.975767 24.095C1.93597 23.6984 2.7226 23.2023 3.54825 22.5722C3.67677 22.4847 3.67677 22.4847 3.8079 22.3953C5.1205 21.4148 5.88396 19.5062 6.62339 18.0778C6.74048 18.0778 6.85758 18.0778 6.97822 18.0778C7.04271 18.1979 7.1072 18.3181 7.17365 18.4419C7.96096 19.888 8.85667 21.1664 9.99971 22.3557C10.4082 22.7848 10.4082 22.7848 10.4082 23.0453C10.4753 23.0774 10.5424 23.1094 10.6115 23.1424C10.9851 23.3356 11.3315 23.5683 11.6833 23.7984C12.2539 24.0879 12.8764 24.2623 13.4833 24.4646C13.4833 20.4055 13.4833 16.3463 13.4833 12.1641ZM9.93509 26.7119C9.78415 26.8294 9.78415 26.8294 9.63016 26.9493C8.41257 27.9509 7.66764 29.4074 7.09649 30.8515C7.09649 30.9686 7.09649 31.0857 7.09649 31.2063C9.02171 31.1639 10.5248 30.3099 11.8571 28.9517C12.7836 27.8506 13.5563 26.2785 13.4833 24.8195C12.3438 24.8195 10.7729 26.0231 9.93509 26.7119Z" fill="url(#paint0_linear_30026_833)"/>
<path d="M87.7361 12.2279C89.6983 12.2279 91.6605 12.2279 93.6821 12.2279C93.9511 12.7342 94.2201 13.2406 94.4973 13.7623C94.7353 14.1838 94.7353 14.1838 94.9746 14.6045C95.1521 14.9182 95.3175 15.2379 95.4829 15.5581C95.7141 16.0051 95.9553 16.4463 96.1973 16.8874C96.3268 17.124 96.4549 17.3613 96.5832 17.5985C96.7823 17.9665 96.9821 18.3341 97.1826 18.7014C97.4402 19.1731 97.6969 19.6452 97.9521 20.1182C98.0325 20.2672 98.1134 20.4157 98.1964 20.5633C98.4206 20.9685 98.6118 21.387 98.801 21.8093C98.8145 21.8393 98.8279 21.8694 98.8418 21.9003C99.2925 22.9083 99.2925 22.9083 99.2925 23.113C99.3242 23.113 99.3558 23.113 99.3884 23.113C99.3964 23.0843 99.4045 23.0556 99.4127 23.0261C99.5023 22.7158 99.6114 22.4188 99.7361 22.121C99.7666 22.0479 99.7666 22.0479 99.7978 21.9733C100.217 20.9874 100.702 20.0273 101.211 19.085C101.309 18.9017 101.408 18.7184 101.506 18.535C101.537 18.4781 101.568 18.4212 101.598 18.3644C101.862 17.8742 102.118 17.3804 102.372 16.8853C102.569 16.5008 102.77 16.1186 102.979 15.7403C103.23 15.2857 103.468 14.8243 103.704 14.3617C104.03 13.725 104.357 13.0893 104.711 12.4676C104.724 12.4266 104.738 12.3856 104.752 12.3433C104.855 12.2279 104.855 12.2279 104.962 12.2061C105.113 12.1981 105.262 12.1983 105.413 12.2006C105.47 12.2006 105.528 12.2006 105.587 12.2005C105.745 12.2007 105.903 12.2019 106.061 12.2035C106.225 12.205 106.39 12.2052 106.555 12.2055C106.868 12.2062 107.18 12.2082 107.492 12.2106C107.848 12.2133 108.203 12.2146 108.559 12.2158C109.29 12.2183 110.022 12.2225 110.753 12.2279C110.708 12.3188 110.663 12.4098 110.618 12.5007C110.593 12.5513 110.567 12.602 110.542 12.6542C110.432 12.8683 110.311 13.0739 110.187 13.2798C110.132 13.3718 110.077 13.4637 110.022 13.5557C109.979 13.6287 109.979 13.6287 109.934 13.7032C109.767 13.9839 109.602 14.2657 109.437 14.5475C109.402 14.6072 109.367 14.6668 109.333 14.7264C109.033 15.2371 108.735 15.7483 108.437 16.2597C108.298 16.4982 108.159 16.7367 108.02 16.9751C107.964 17.071 107.908 17.1669 107.852 17.2628C107.293 18.2219 106.733 19.1809 106.174 20.1399C106.146 20.1874 106.118 20.2348 106.09 20.2837C106.034 20.3798 105.978 20.4759 105.922 20.572C105.783 20.8088 105.645 21.0456 105.507 21.2824C105.185 21.8348 104.862 22.3867 104.539 22.9383C104.223 23.4768 103.908 24.016 103.594 24.5554C103.427 24.8414 103.26 25.1273 103.094 25.4133C102.949 25.6613 102.804 25.9094 102.66 26.1576C102.63 26.2088 102.6 26.26 102.569 26.3128C102.513 26.41 102.456 26.5071 102.399 26.6043C102.374 26.6487 102.348 26.6932 102.321 26.739C102.299 26.7773 102.276 26.8157 102.253 26.8553C102.17 26.9971 102.17 26.9971 102.1 27.0842C101.806 27.4859 101.841 27.9003 101.845 28.3762C101.844 28.467 101.844 28.5578 101.843 28.6485C101.842 28.8938 101.842 29.1391 101.843 29.3843C101.844 29.6411 101.842 29.8979 101.841 30.1546C101.84 30.6403 101.84 31.126 101.84 31.6117C101.84 32.2684 101.838 32.925 101.837 33.5817C101.834 34.6156 101.834 35.6495 101.834 36.6834C100.172 36.6834 98.5109 36.6834 96.799 36.6834C96.8072 35.709 96.8072 35.709 96.8155 34.7149C96.8172 34.3012 96.8188 33.8876 96.8194 33.4739C96.8205 32.8185 96.8223 32.1632 96.8294 31.5078C96.8346 31.0303 96.8369 30.5529 96.8361 30.0754C96.8358 29.823 96.8368 29.5709 96.8411 29.3186C96.8602 28.1336 96.8142 27.2647 96.074 26.3018C95.9479 26.1341 95.8445 25.9562 95.7416 25.7737C95.7075 25.7159 95.6732 25.6582 95.6388 25.6005C95.567 25.4797 95.4953 25.3589 95.4235 25.2381C95.3066 25.0412 95.1897 24.8443 95.0727 24.6474C94.9179 24.3867 94.763 24.126 94.6082 23.8652C94.5797 23.8172 94.5797 23.8172 94.5506 23.7682C94.2616 23.2816 93.973 22.7948 93.6846 22.3079C93.3233 21.6982 92.9614 21.0888 92.5995 20.4795C92.4279 20.1904 92.2562 19.9013 92.0846 19.6122C91.9897 19.4525 91.8949 19.2927 91.8 19.133C91.762 19.069 91.7241 19.0051 91.6861 18.9411C91.6673 18.9095 91.6485 18.8778 91.6292 18.8452C90.5473 17.0231 90.5473 17.0231 90.4903 16.9272C90.4523 16.8632 90.4144 16.7993 90.3764 16.7353C90.2816 16.5757 90.1868 16.416 90.092 16.2564C89.9004 15.9337 89.7088 15.611 89.5172 15.2884C89.1675 14.6994 88.8177 14.1104 88.4684 13.5212C88.4215 13.4422 88.3746 13.3631 88.3277 13.2841C88.2422 13.1399 88.1569 12.9956 88.0717 12.8512C88.0241 12.7707 88.0241 12.7707 87.9755 12.6886C87.9447 12.6362 87.9139 12.5838 87.8822 12.5298C87.8542 12.4823 87.8261 12.4347 87.7973 12.3857C87.7361 12.2758 87.7361 12.2758 87.7361 12.2279Z" fill="#010A21"/>
<path d="M142.306 12.2275C142.954 12.2275 143.603 12.2275 144.272 12.2275C144.341 12.4138 144.41 12.6 144.481 12.7919C145.044 14.3114 145.609 15.8305 146.175 17.3489C146.345 17.8045 146.514 18.26 146.684 18.7156C146.779 18.97 146.874 19.2244 146.968 19.4788C146.987 19.5291 147.006 19.5795 147.025 19.6314C147.14 19.9409 147.256 20.2505 147.371 20.5601C147.76 21.6045 148.149 22.649 148.538 23.6936C148.915 24.7068 149.292 25.7198 149.67 26.7328C149.841 27.1936 150.013 27.6543 150.185 28.115C150.28 28.3697 150.374 28.6243 150.469 28.8789C150.507 28.9808 150.545 29.0827 150.583 29.1846C150.602 29.235 150.621 29.2855 150.64 29.3374C150.697 29.4903 150.754 29.6431 150.811 29.796C150.83 29.8464 150.849 29.8968 150.868 29.9488C150.906 30.0507 150.944 30.1526 150.982 30.2546C151.077 30.5091 151.171 30.7636 151.266 31.0181C151.438 31.4793 151.61 31.9404 151.781 32.4017C151.858 32.6088 151.935 32.8158 152.013 33.0228C152.05 33.1247 152.088 33.2266 152.126 33.3285C152.335 33.8896 152.545 34.4501 152.758 35.0096C152.777 35.0601 152.796 35.1106 152.816 35.1626C152.907 35.4031 152.999 35.6435 153.091 35.8838C153.123 35.9689 153.156 36.054 153.188 36.1391C153.203 36.1778 153.218 36.2165 153.233 36.2564C153.334 36.5229 153.334 36.5229 153.334 36.6831C152.781 36.6831 152.227 36.6831 151.656 36.6831C151.258 35.6405 150.87 34.5946 150.484 33.5475C150.345 33.1714 150.206 32.7955 150.066 32.4197C150.046 32.3633 150.025 32.307 150.003 32.249C149.921 32.0281 149.839 31.8073 149.758 31.5864C149.445 30.7446 149.136 29.9017 148.827 29.0587C145.172 29.0429 141.516 29.0271 137.75 29.0108C137.703 29.169 137.655 29.3272 137.606 29.4903C137.553 29.6432 137.5 29.7955 137.444 29.9475C137.429 29.9904 137.413 30.0333 137.397 30.0775C137.346 30.2185 137.295 30.3594 137.244 30.5003C137.207 30.6007 137.171 30.7012 137.134 30.8016C136.845 31.5992 136.552 32.3959 136.259 33.1922C136.063 33.7254 135.867 34.2589 135.673 34.7927C135.651 34.8505 135.63 34.9083 135.609 34.9678C135.506 35.2491 135.404 35.5303 135.301 35.8116C135.264 35.9128 135.227 36.0139 135.19 36.115C135.173 36.1615 135.157 36.2081 135.139 36.2561C135.124 36.2985 135.108 36.341 135.092 36.3847C135.079 36.4217 135.065 36.4587 135.051 36.4968C135.017 36.5872 135.017 36.5872 134.969 36.6831C134.399 36.6831 133.83 36.6831 133.243 36.6831C133.503 35.9297 133.777 35.182 134.055 34.4351C134.116 34.2714 134.177 34.1076 134.238 33.9439C134.313 33.7422 134.388 33.5406 134.463 33.3389C134.679 32.7563 134.895 32.1735 135.111 31.5907C135.17 31.4316 135.229 31.2726 135.288 31.1136C135.366 30.9021 135.444 30.6906 135.523 30.4791C135.742 29.8876 135.961 29.2961 136.18 28.7046C136.24 28.5424 136.3 28.3802 136.36 28.218C136.39 28.1378 136.39 28.1378 136.42 28.056C136.538 27.7362 136.657 27.4163 136.775 27.0965C137.231 25.8647 137.688 24.6331 138.145 23.4016C138.598 22.1805 139.05 20.9592 139.503 19.7378C139.622 19.4167 139.74 19.0956 139.859 18.7745C139.879 18.721 139.899 18.6674 139.919 18.6123C140.019 18.3426 140.119 18.073 140.219 17.8033C140.401 17.3117 140.583 16.82 140.765 16.3282C141.16 15.2604 141.555 14.1928 141.955 13.1266C141.97 13.0855 141.986 13.0444 142.001 13.0021C142.044 12.8885 142.087 12.7749 142.129 12.6614C142.142 12.6281 142.154 12.5949 142.167 12.5607C142.252 12.3345 142.252 12.3345 142.306 12.2275ZM143.265 13.6661C143.105 14.0392 142.981 14.4216 142.859 14.808C142.234 16.7792 141.505 18.7163 140.793 20.6576C140.629 21.1052 140.466 21.5528 140.302 22.0006C140.291 22.0317 140.28 22.0628 140.268 22.0949C140.211 22.2518 140.153 22.4088 140.096 22.5657C139.983 22.8763 139.869 23.187 139.756 23.4976C139.745 23.5284 139.733 23.5592 139.722 23.591C139.563 24.0274 139.403 24.4637 139.244 24.9001C139.154 25.1464 139.064 25.3928 138.974 25.6392C138.9 25.8404 138.827 26.0415 138.753 26.2426C138.719 26.3366 138.684 26.4307 138.65 26.5248C138.608 26.6394 138.566 26.7539 138.524 26.8684C138.496 26.9447 138.496 26.9447 138.468 27.0224C138.452 27.0664 138.436 27.1103 138.419 27.1555C138.37 27.2937 138.324 27.433 138.278 27.5722C141.585 27.5722 144.892 27.5722 148.3 27.5722C148.078 26.9362 147.858 26.3028 147.619 25.6736C147.507 25.3783 147.396 25.0828 147.285 24.7872C147.266 24.7358 147.246 24.6844 147.226 24.6314C146.987 23.9949 146.754 23.3565 146.52 22.7181C146.333 22.2067 146.144 21.6957 145.954 21.1854C145.026 18.6957 144.148 16.1884 143.312 13.6661C143.297 13.6661 143.281 13.6661 143.265 13.6661Z" fill="#010A21"/>
<path d="M115.021 12.2275C125.987 12.2275 125.987 12.2275 128.103 14.3015C128.462 14.6651 128.761 15.0494 129.023 15.4883C129.042 15.5204 129.061 15.5525 129.081 15.5856C130.128 17.3648 130.356 19.6631 129.872 21.6535C129.54 22.9173 128.963 23.9799 128.064 24.9348C128.035 24.9667 128.006 24.9985 127.977 25.0313C127.304 25.7476 126.39 26.2377 125.474 26.5652C125.427 26.5828 125.379 26.6004 125.33 26.6186C124.993 26.7327 124.651 26.7997 124.302 26.8619C124.258 26.8699 124.213 26.8779 124.168 26.8862C123.583 26.9849 122.998 27.004 122.406 27.0022C122.341 27.0022 122.276 27.0022 122.212 27.0022C122.04 27.0022 121.868 27.002 121.697 27.0016C121.535 27.0013 121.373 27.0013 121.212 27.0013C120.74 27.0011 120.269 27.0004 119.798 26.9998C118.217 26.9983 118.217 26.9983 116.603 26.9968C116.603 30.1933 116.603 33.3897 116.603 36.6831C116.081 36.6831 115.559 36.6831 115.021 36.6831C115.021 28.6128 115.021 20.5424 115.021 12.2275ZM116.603 13.6661C116.603 17.5747 116.603 21.4832 116.603 25.5103C117.701 25.5132 118.799 25.5162 119.93 25.5192C120.275 25.5206 120.62 25.5219 120.976 25.5232C121.288 25.5237 121.288 25.5237 121.601 25.524C121.739 25.5241 121.877 25.5247 122.015 25.5254C123.624 25.5343 125.211 25.3527 126.481 24.2635C126.529 24.2231 126.578 24.1827 126.627 24.141C127.756 23.168 128.316 21.7694 128.48 20.3135C128.573 19.024 128.392 17.8055 127.824 16.6391C127.802 16.5925 127.78 16.5459 127.757 16.4979C127.135 15.2686 125.991 14.4267 124.71 13.9868C123.891 13.7196 123.052 13.658 122.194 13.6607C122.132 13.6607 122.07 13.6606 122.006 13.6606C121.841 13.6606 121.676 13.6609 121.511 13.6612C121.355 13.6615 121.199 13.6615 121.043 13.6616C120.589 13.6618 120.135 13.6625 119.681 13.6631C118.665 13.6641 117.65 13.6651 116.603 13.6661Z" fill="#010A21"/>
<path d="M155.253 12.2277C156.891 12.0611 156.891 12.0611 157.324 12.3189C157.559 12.5562 157.697 12.8432 157.829 13.1476C157.914 13.3368 158.028 13.4965 158.151 13.6633C158.193 13.7244 158.235 13.7857 158.277 13.847C158.447 14.093 158.618 14.3381 158.789 14.5834C159.073 14.9908 159.354 15.4001 159.633 15.8108C159.883 16.1781 160.136 16.5429 160.391 16.9074C160.67 17.309 160.947 17.7128 161.223 18.1171C161.336 18.2831 161.45 18.4487 161.564 18.6143C161.586 18.6454 161.607 18.6766 161.629 18.7086C161.672 18.7709 161.715 18.8331 161.758 18.8954C161.886 19.0827 162.015 19.27 162.144 19.4574C162.253 19.6164 162.363 19.7755 162.472 19.9343C162.784 20.3859 163.091 20.84 163.395 21.2966C163.418 21.3309 163.441 21.3651 163.465 21.4004C164.099 22.3537 164.705 23.3179 165.275 24.3116C165.324 24.2307 165.374 24.1498 165.424 24.0689C165.443 24.0395 165.461 24.0101 165.479 23.9798C165.588 23.8029 165.696 23.6252 165.803 23.4468C166.182 22.8153 166.581 22.2009 166.992 21.5902C167.153 21.3512 167.31 21.1106 167.465 20.8681C167.751 20.4225 168.051 19.9865 168.35 19.5501C168.461 19.3897 168.57 19.2291 168.68 19.0685C168.782 18.9193 168.884 18.7702 168.986 18.621C169.09 18.47 169.193 18.319 169.296 18.168C169.374 18.0543 169.452 17.9405 169.53 17.8267C169.635 17.673 169.74 17.5192 169.845 17.3655C170.109 16.9801 170.373 16.5949 170.638 16.2102C170.886 15.849 171.133 15.487 171.381 15.1251C171.537 14.8967 171.693 14.6683 171.85 14.4398C171.981 14.2483 172.112 14.0566 172.243 13.865C172.398 13.6389 172.552 13.4128 172.707 13.1867C172.732 13.15 172.757 13.1133 172.783 13.0754C172.856 12.9696 172.928 12.8639 173.001 12.7582C173.022 12.7267 173.044 12.6952 173.066 12.6628C173.122 12.5815 173.178 12.5005 173.235 12.4195C173.252 12.3851 173.269 12.3506 173.287 12.3151C173.41 12.1975 173.515 12.2059 173.68 12.206C173.74 12.2075 173.74 12.2075 173.802 12.209C173.864 12.2094 173.864 12.2094 173.927 12.2098C174.059 12.2109 174.191 12.2133 174.322 12.2157C174.412 12.2167 174.501 12.2176 174.591 12.2183C174.81 12.2205 175.029 12.2238 175.249 12.2277C175.185 12.401 175.109 12.5415 175.002 12.6917C174.972 12.7348 174.942 12.7779 174.91 12.8223C174.878 12.8684 174.845 12.9145 174.811 12.962C174.495 13.4104 174.187 13.8634 173.886 14.3215C173.708 14.5909 173.523 14.8536 173.332 15.1138C173.161 15.3499 172.999 15.5917 172.836 15.8331C172.764 15.9391 172.692 16.0452 172.62 16.1512C172.586 16.202 172.551 16.2529 172.516 16.3054C172.39 16.4901 172.264 16.6742 172.138 16.8581C172.107 16.903 172.107 16.903 172.075 16.9489C172.035 17.0078 171.994 17.0668 171.953 17.1258C171.845 17.2832 171.736 17.4408 171.628 17.5983C171.497 17.7885 171.367 17.9786 171.236 18.1687C170.999 18.5137 170.762 18.859 170.525 19.2047C170.225 19.6438 169.924 20.0822 169.622 20.5205C169.363 20.8967 169.105 21.2733 168.847 21.6503C168.547 22.0894 168.245 22.5278 167.944 22.966C167.659 23.3806 167.374 23.7957 167.09 24.2111C166.894 24.4968 166.699 24.782 166.502 25.0669C166.482 25.0959 166.462 25.1249 166.442 25.1547C166.425 25.1796 166.407 25.2044 166.39 25.23C166.37 25.2592 166.35 25.2885 166.329 25.3186C166.297 25.3585 166.265 25.3984 166.231 25.4396C166.11 25.6562 166.111 25.8174 166.113 26.0615C166.112 26.1069 166.112 26.1524 166.112 26.1993C166.111 26.3515 166.111 26.5036 166.111 26.6558C166.111 26.765 166.111 26.8742 166.11 26.9833C166.109 27.2796 166.108 27.5759 166.109 27.8723C166.108 28.1819 166.107 28.4916 166.106 28.8013C166.104 29.3211 166.103 29.8408 166.103 30.3606C166.102 30.8959 166.101 31.4312 166.1 31.9665C166.1 31.9995 166.099 32.0325 166.099 32.0665C166.099 32.2321 166.098 32.3977 166.098 32.5634C166.094 33.9367 166.091 35.31 166.09 36.6833C165.568 36.6833 165.045 36.6833 164.507 36.6833C164.508 36.5468 164.508 36.4103 164.509 36.2697C164.514 35.0156 164.516 33.7615 164.516 32.5074C164.516 32.3427 164.516 32.178 164.516 32.0133C164.516 31.9641 164.516 31.9641 164.516 31.914C164.516 31.3846 164.518 30.8551 164.52 30.3257C164.523 29.7817 164.523 29.2377 164.522 28.6936C164.521 28.3884 164.521 28.0832 164.524 27.7779C164.526 27.4901 164.526 27.2024 164.524 26.9146C164.524 26.8094 164.524 26.7043 164.526 26.5991C164.535 25.9207 164.446 25.4951 164.002 24.9725C163.88 24.8236 163.775 24.6632 163.668 24.5034C163.643 24.4676 163.619 24.4317 163.593 24.3948C163.489 24.2432 163.385 24.0916 163.281 23.9398C163.024 23.5652 162.765 23.1918 162.505 22.8191C162.221 22.4116 161.94 22.0022 161.661 21.5914C161.445 21.2739 161.227 20.9582 161.007 20.6433C160.662 20.1493 160.322 19.6521 159.984 19.1542C159.66 18.6794 159.333 18.2074 159.005 17.7362C158.721 17.3287 158.44 16.9193 158.161 16.5084C157.945 16.1909 157.726 15.8753 157.506 15.5604C157.226 15.1592 156.95 14.7562 156.675 14.3516C156.452 14.0237 156.226 13.6978 155.999 13.3726C155.253 12.3023 155.253 12.3023 155.253 12.2277Z" fill="#010A21"/>
<defs>
<linearGradient id="paint0_linear_30026_833" x1="2.77946" y1="12.6963" x2="18.8057" y2="36.5878" gradientUnits="userSpaceOnUse">
<stop stop-color="#0D50E5"/>
<stop offset="0.427885" stop-color="#042987"/>
<stop offset="1" stop-color="#010A21"/>
</linearGradient>
</defs>
</svg>
