<svg width="197" height="48" viewBox="0 0 197 48" fill="none" xmlns="http://www.w3.org/2000/svg">
<path d="M74.6613 12.2278C76.5128 12.2278 78.3642 12.2278 80.2717 12.2278C80.4855 12.5332 80.6868 12.8309 80.8741 13.1509C81.079 13.4965 81.2896 13.8376 81.5065 14.1758C81.7565 14.5659 82.0016 14.9587 82.2438 15.3537C82.4869 15.7502 82.7319 16.1454 82.981 16.5382C83.171 16.8379 83.3595 17.1386 83.5475 17.4396C83.5777 17.488 83.6079 17.5364 83.6391 17.5863C83.7007 17.6849 83.7623 17.7836 83.8239 17.8823C83.9744 18.1234 84.1251 18.3644 84.2757 18.6054C84.3357 18.7013 84.3956 18.7972 84.4555 18.8931C84.5001 18.9643 84.5001 18.9643 84.5455 19.037C85.3996 20.4036 85.3996 20.4036 86.2537 21.7702C86.2834 21.8177 86.3131 21.8652 86.3437 21.9141C86.4035 22.0099 86.4634 22.1057 86.5233 22.2015C86.6742 22.4431 86.8253 22.6846 86.9764 22.9261C87.1266 23.1663 87.2767 23.4065 87.4267 23.6468C87.4826 23.7364 87.5386 23.8259 87.5945 23.9155C88.2056 24.8939 88.7919 25.883 89.3347 26.9011C89.3578 26.9444 89.381 26.9877 89.4048 27.0323C89.9559 28.0652 90.4961 29.1161 90.9171 30.2098C90.9236 29.8075 90.9058 29.4074 90.883 29.0059C90.8766 28.8925 90.8704 28.7792 90.8643 28.6659C90.8467 28.3439 90.8289 28.0219 90.8108 27.6999C90.7997 27.5015 90.7889 27.3032 90.7782 27.1048C90.7742 27.0313 90.7701 26.9578 90.7659 26.8844C90.6679 25.1744 90.6705 23.4627 90.6724 21.7506C90.6727 21.4195 90.6728 21.0885 90.6728 20.7574C90.6729 20.1675 90.6732 19.5775 90.6737 18.9876C90.6741 18.4159 90.6745 17.8443 90.6747 17.2726C90.6747 17.2368 90.6747 17.201 90.6747 17.164C90.6748 16.852 90.6749 16.5401 90.675 16.2281C90.6755 14.8946 90.6764 13.5612 90.6773 12.2278C92.3863 12.2278 94.0953 12.2278 95.8561 12.2278C95.8561 20.2981 95.8561 28.3684 95.8561 36.6833C93.9889 36.6833 92.1216 36.6833 90.1978 36.6833C89.434 35.4831 89.434 35.4831 89.1608 35.044C88.948 34.7027 88.7346 34.3618 88.5195 34.022C88.2126 33.537 87.9086 33.0502 87.6047 32.5633C87.4542 32.3222 87.3035 32.0812 87.1528 31.8402C87.0929 31.7443 87.033 31.6484 86.973 31.5525C86.9434 31.505 86.9137 31.4575 86.8831 31.4086C85.1748 28.6753 85.1748 28.6753 85.0849 28.5314C85.0251 28.4357 84.9652 28.34 84.9054 28.2443C84.7537 28.0016 84.602 27.7589 84.4505 27.5161C84.3892 27.418 84.328 27.3199 84.2667 27.2218C84.2368 27.1738 84.2069 27.1259 84.176 27.0765C84.0151 26.819 83.8534 26.5621 83.6905 26.3059C83.3732 25.8062 83.0666 25.3007 82.7652 24.7912C82.7265 24.7259 82.7265 24.7259 82.687 24.6593C81.5491 22.7369 80.5469 20.7484 79.5524 18.7493C79.5728 19.3967 79.6016 20.0427 79.6466 20.6889C79.7855 22.7559 79.8112 24.8207 79.8109 26.8916C79.8109 26.9271 79.8109 26.9626 79.8109 26.9992C79.8108 27.9134 79.8087 28.8277 79.806 29.742C79.8045 30.2727 79.8034 30.8034 79.8027 31.3341C79.8027 31.3909 79.8027 31.3909 79.8026 31.4488C79.8023 31.6388 79.8021 31.8288 79.8019 32.0189C79.7999 33.5737 79.7964 35.1285 79.7922 36.6833C78.099 36.6833 76.4058 36.6833 74.6613 36.6833C74.6613 28.613 74.6613 20.5427 74.6613 12.2278Z" fill="#FDFFFF"/>
<path d="M54.2338 12.2278C59.6456 12.2278 65.0575 12.2278 70.6334 12.2278C70.6334 13.6045 70.6334 14.9812 70.6334 16.3996C66.883 16.3996 63.1327 16.3996 59.2687 16.3996C59.2687 18.346 59.2687 20.2924 59.2687 22.2977C62.7342 22.2977 66.1997 22.2977 69.7702 22.2977C69.7702 23.6586 69.7702 25.0195 69.7702 26.4216C66.3047 26.4216 62.8392 26.4216 59.2687 26.4216C59.2687 28.4313 59.2687 30.4409 59.2687 32.5115C63.0191 32.5115 66.7694 32.5115 70.6334 32.5115C70.6334 33.8882 70.6334 35.2649 70.6334 36.6833C65.2215 36.6833 59.8096 36.6833 54.2338 36.6833C54.2338 28.613 54.2338 20.5427 54.2338 12.2278Z" fill="#FDFFFF"/>
<path d="M33.8541 12.2278C39.266 12.2278 44.6779 12.2278 50.2537 12.2278C50.2537 13.6045 50.2537 14.9812 50.2537 16.3996C46.5034 16.3996 42.7531 16.3996 38.8891 16.3996C38.8891 18.346 38.8891 20.2924 38.8891 22.2977C42.3546 22.2977 45.8201 22.2977 49.3906 22.2977C49.3906 23.6586 49.3906 25.0195 49.3906 26.4216C45.9251 26.4216 42.4596 26.4216 38.8891 26.4216C38.8891 28.4313 38.8891 30.4409 38.8891 32.5115C42.6394 32.5115 46.3898 32.5115 50.2537 32.5115C50.2537 33.8882 50.2537 35.2649 50.2537 36.6833C44.8419 36.6833 39.43 36.6833 33.8541 36.6833C33.8541 28.613 33.8541 20.5427 33.8541 12.2278Z" fill="#FDFFFF"/>
<path d="M24.5285 12.1639C26.2849 12.1639 28.0412 12.1639 29.8509 12.1639C29.8616 13.9468 29.8703 15.7297 29.8754 17.5127C29.8778 18.3408 29.8811 19.1688 29.8865 19.9969C29.8918 20.7975 29.8945 21.5981 29.8957 22.3988C29.8966 22.7027 29.8983 23.0067 29.9009 23.3106C29.931 27.0143 29.1435 30.1781 26.5091 32.892C24.5774 34.8237 21.9083 36.5157 19.0777 36.5401C18.9086 36.5393 18.7395 36.5379 18.5704 36.5359C18.4833 36.5354 18.3963 36.5348 18.3066 36.5343C18.0939 36.5329 17.8812 36.5308 17.6685 36.5285C17.6699 36.3778 17.6713 36.2271 17.6727 36.0719C17.6766 35.5029 17.6742 34.934 17.67 34.365C17.669 34.1206 17.6697 33.8762 17.6722 33.6318C17.6943 31.2289 17.0758 29.6154 15.5396 27.7762C15.422 27.6216 15.422 27.6216 15.3021 27.4639C14.2345 26.1405 12.5699 25.4851 11.0452 24.8193C11.0842 24.7022 11.1232 24.5851 11.1634 24.4645C11.4483 24.3277 11.7272 24.2092 12.0209 24.0949C12.9811 23.6982 13.7678 23.2022 14.5934 22.5721C14.7219 22.4845 14.7219 22.4845 14.853 22.3951C16.1656 21.4147 16.9291 19.5061 17.6685 18.0777C17.7856 18.0777 17.9027 18.0777 18.0234 18.0777C18.0879 18.1978 18.1524 18.3179 18.2188 18.4417C19.0061 19.8879 19.9018 21.1662 21.0449 22.3555C21.4533 22.7846 21.4533 22.7846 21.4533 23.0452C21.5204 23.0772 21.5875 23.1092 21.6566 23.1422C22.0303 23.3355 22.3766 23.5681 22.7285 23.7983C23.2991 24.0877 23.9215 24.2622 24.5285 24.4645C24.5285 20.4053 24.5285 16.3461 24.5285 12.1639ZM20.9802 26.7117C20.8293 26.8293 20.8293 26.8293 20.6753 26.9492C19.4577 27.9508 18.7128 29.4073 18.1416 30.8513C18.1416 30.9684 18.1416 31.0855 18.1416 31.2062C20.0669 31.1637 21.57 30.3097 22.9022 28.9515C23.8288 27.8505 24.6014 26.2783 24.5285 24.8193C23.3889 24.8193 21.8181 26.0229 20.9802 26.7117Z" fill="#FDFFFF"/>
<path d="M98.7812 12.2278C100.743 12.2278 102.706 12.2278 104.727 12.2278C104.996 12.7341 105.265 13.2405 105.542 13.7622C105.78 14.1837 105.78 14.1837 106.02 14.6044C106.197 14.9181 106.363 15.2378 106.528 15.558C106.759 16.005 107 16.4462 107.242 16.8873C107.372 17.1239 107.5 17.3612 107.628 17.5984C107.827 17.9664 108.027 18.3341 108.228 18.7013C108.485 19.173 108.742 19.6451 108.997 20.1181C109.078 20.2671 109.159 20.4156 109.242 20.5632C109.466 20.9684 109.657 21.3869 109.846 21.8092C109.86 21.8392 109.873 21.8693 109.887 21.9002C110.338 22.9082 110.338 22.9082 110.338 23.1129C110.369 23.1129 110.401 23.1129 110.434 23.1129C110.442 23.0842 110.45 23.0555 110.458 23.026C110.547 22.7157 110.657 22.4187 110.781 22.1209C110.812 22.0478 110.812 22.0478 110.843 21.9732C111.262 20.9873 111.747 20.0272 112.256 19.0849C112.354 18.9016 112.453 18.7183 112.552 18.5349C112.582 18.478 112.613 18.4211 112.643 18.3643C112.907 17.8741 113.163 17.3803 113.417 16.8852C113.614 16.5007 113.815 16.1185 114.024 15.7403C114.275 15.2856 114.513 14.8242 114.749 14.3616C115.075 13.7249 115.402 13.0892 115.756 12.4675C115.77 12.4265 115.783 12.3855 115.797 12.3433C115.9 12.2278 115.9 12.2278 116.007 12.206C116.158 12.198 116.307 12.1982 116.458 12.2005C116.515 12.2005 116.573 12.2005 116.632 12.2004C116.79 12.2006 116.948 12.2018 117.106 12.2035C117.271 12.205 117.436 12.2051 117.6 12.2054C117.913 12.2061 118.225 12.2081 118.537 12.2105C118.893 12.2132 119.248 12.2145 119.604 12.2157C120.335 12.2182 121.067 12.2224 121.798 12.2278C121.753 12.3188 121.708 12.4097 121.663 12.5006C121.638 12.5512 121.613 12.6019 121.587 12.6541C121.477 12.8682 121.356 13.0738 121.232 13.2797C121.177 13.3717 121.122 13.4636 121.067 13.5556C121.024 13.6286 121.024 13.6286 120.979 13.7031C120.812 13.9838 120.648 14.2656 120.483 14.5474C120.448 14.6071 120.413 14.6667 120.378 14.7264C120.079 15.237 119.78 15.7482 119.482 16.2596C119.343 16.4981 119.204 16.7366 119.065 16.975C119.009 17.0709 118.953 17.1668 118.897 17.2627C118.338 18.2218 117.778 19.1808 117.219 20.1399C117.191 20.1873 117.163 20.2348 117.135 20.2836C117.079 20.3798 117.023 20.4758 116.967 20.5719C116.829 20.8087 116.691 21.0455 116.553 21.2823C116.23 21.8347 115.908 22.3866 115.584 22.9382C115.268 23.4768 114.953 24.0159 114.639 24.5553C114.472 24.8413 114.306 25.1272 114.139 25.4132C113.994 25.6612 113.849 25.9093 113.705 26.1575C113.675 26.2087 113.645 26.2599 113.614 26.3127C113.558 26.4099 113.501 26.507 113.445 26.6042C113.419 26.6486 113.393 26.6931 113.366 26.7389C113.344 26.7773 113.321 26.8156 113.298 26.8552C113.215 26.997 113.215 26.997 113.145 27.0841C112.851 27.4859 112.887 27.9002 112.89 28.3761C112.89 28.4669 112.889 28.5577 112.888 28.6484C112.887 28.8937 112.887 29.139 112.888 29.3843C112.889 29.641 112.887 29.8978 112.886 30.1545C112.885 30.6402 112.885 31.1259 112.885 31.6116C112.885 32.2683 112.883 32.925 112.882 33.5816C112.879 34.6155 112.879 35.6494 112.879 36.6833C111.218 36.6833 109.556 36.6833 107.844 36.6833C107.852 35.7089 107.852 35.7089 107.861 34.7148C107.862 34.3012 107.864 33.8875 107.865 33.4738C107.866 32.8184 107.867 32.1631 107.875 31.5078C107.88 31.0302 107.882 30.5528 107.881 30.0753C107.881 29.8229 107.882 29.5708 107.886 29.3185C107.905 28.1336 107.859 27.2646 107.119 26.3017C106.993 26.134 106.89 25.9561 106.787 25.7737C106.753 25.7158 106.718 25.6581 106.684 25.6004C106.612 25.4796 106.54 25.3588 106.469 25.238C106.352 25.0411 106.235 24.8442 106.118 24.6473C105.963 24.3866 105.808 24.1259 105.653 23.8651C105.625 23.8171 105.625 23.8171 105.596 23.7681C105.307 23.2815 105.018 22.7947 104.73 22.3078C104.368 21.6981 104.007 21.0887 103.645 20.4794C103.473 20.1903 103.301 19.9012 103.13 19.6121C103.035 19.4524 102.94 19.2926 102.845 19.1329C102.807 19.0689 102.769 19.005 102.731 18.9411C102.712 18.9094 102.694 18.8778 102.674 18.8451C101.592 17.023 101.592 17.023 101.535 16.9271C101.497 16.8631 101.46 16.7992 101.422 16.7352C101.327 16.5756 101.232 16.4159 101.137 16.2563C100.946 15.9336 100.754 15.6109 100.562 15.2883C100.213 14.6993 99.8629 14.1103 99.5135 13.5211C99.4666 13.4421 99.4197 13.363 99.3728 13.284C99.2873 13.1398 99.2021 12.9955 99.1169 12.8511C99.0693 12.7706 99.0693 12.7706 99.0207 12.6885C98.9899 12.6361 98.9591 12.5837 98.9273 12.5297C98.8993 12.4822 98.8713 12.4346 98.8424 12.3856C98.7812 12.2757 98.7812 12.2757 98.7812 12.2278Z" fill="#FDFFFF"/>
<path d="M153.351 12.2278C153.999 12.2278 154.648 12.2278 155.317 12.2278C155.386 12.414 155.455 12.6003 155.526 12.7922C156.089 14.3116 156.654 15.8307 157.22 17.3492C157.39 17.8047 157.559 18.2603 157.729 18.7159C157.824 18.9703 157.919 19.2246 158.013 19.479C158.032 19.5294 158.051 19.5797 158.07 19.6316C158.186 19.9412 158.301 20.2507 158.416 20.5603C158.805 21.6047 159.195 22.6492 159.583 23.6939C159.96 24.7071 160.338 25.7201 160.715 26.7331C160.887 27.1938 161.058 27.6545 161.23 28.1153C161.325 28.3699 161.42 28.6245 161.514 28.8791C161.552 28.981 161.59 29.0829 161.628 29.1848C161.647 29.2353 161.666 29.2857 161.685 29.3377C161.742 29.4905 161.799 29.6434 161.856 29.7962C161.875 29.8467 161.894 29.8971 161.913 29.9491C161.951 30.051 161.989 30.1529 162.027 30.2548C162.122 30.5093 162.217 30.7638 162.311 31.0184C162.483 31.4795 162.655 31.9407 162.827 32.402C162.904 32.609 162.981 32.816 163.058 33.0231C163.096 33.125 163.133 33.2269 163.171 33.3288C163.38 33.8898 163.59 34.4504 163.803 35.0099C163.822 35.0603 163.841 35.1108 163.861 35.1628C163.952 35.4033 164.044 35.6438 164.136 35.884C164.169 35.9691 164.201 36.0543 164.233 36.1394C164.248 36.1781 164.263 36.2167 164.279 36.2566C164.38 36.5231 164.38 36.5231 164.38 36.6833C163.826 36.6833 163.272 36.6833 162.701 36.6833C162.303 35.6407 161.915 34.5948 161.529 33.5477C161.39 33.1717 161.251 32.7958 161.112 32.4199C161.091 32.3636 161.07 32.3073 161.048 32.2493C160.966 32.0284 160.885 31.8075 160.803 31.5867C160.49 30.7448 160.181 29.902 159.872 29.059C156.217 29.0431 152.561 29.0273 148.795 29.011C148.748 29.1692 148.7 29.3275 148.651 29.4905C148.598 29.6435 148.545 29.7957 148.489 29.9478C148.474 29.9907 148.458 30.0336 148.442 30.0778C148.391 30.2187 148.34 30.3596 148.289 30.5005C148.252 30.601 148.216 30.7014 148.179 30.8019C147.89 31.5995 147.598 32.3961 147.304 33.1924C147.108 33.7257 146.912 34.2591 146.718 34.793C146.697 34.8507 146.676 34.9085 146.654 34.968C146.551 35.2493 146.449 35.5306 146.346 35.8119C146.309 35.913 146.272 36.0141 146.236 36.1152C146.219 36.1618 146.202 36.2084 146.184 36.2564C146.169 36.2988 146.153 36.3412 146.137 36.3849C146.124 36.4219 146.11 36.4589 146.096 36.497C146.062 36.5874 146.062 36.5874 146.014 36.6833C145.444 36.6833 144.875 36.6833 144.288 36.6833C144.548 35.93 144.822 35.1822 145.1 34.4353C145.161 34.2716 145.222 34.1079 145.283 33.9442C145.358 33.7425 145.433 33.5408 145.508 33.3391C145.724 32.7566 145.94 32.1738 146.156 31.5909C146.215 31.4319 146.274 31.2728 146.333 31.1138C146.411 30.9023 146.489 30.6908 146.568 30.4793C146.787 29.8878 147.006 29.2963 147.225 28.7048C147.285 28.5426 147.345 28.3805 147.405 28.2183C147.435 28.1381 147.435 28.1381 147.465 28.0562C147.584 27.7364 147.702 27.4166 147.82 27.0968C148.277 25.865 148.733 24.6333 149.19 23.4019C149.643 22.1808 150.096 20.9595 150.548 19.7381C150.667 19.417 150.786 19.0958 150.905 18.7747C150.924 18.7212 150.944 18.6677 150.965 18.6125C151.064 18.3429 151.164 18.0732 151.264 17.8036C151.446 17.3119 151.628 16.8202 151.81 16.3285C152.205 15.2607 152.601 14.193 153 13.1269C153.015 13.0858 153.031 13.0447 153.047 13.0023C153.089 12.8887 153.132 12.7751 153.174 12.6616C153.187 12.6284 153.199 12.5951 153.212 12.5609C153.297 12.3348 153.297 12.3348 153.351 12.2278ZM154.31 13.6663C154.15 14.0394 154.026 14.4219 153.904 14.8082C153.279 16.7795 152.55 18.7165 151.839 20.6579C151.675 21.1054 151.511 21.5531 151.348 22.0008C151.336 22.0319 151.325 22.0631 151.313 22.0951C151.256 22.2521 151.199 22.409 151.141 22.5659C151.028 22.8766 150.915 23.1872 150.801 23.4978C150.79 23.5287 150.779 23.5595 150.767 23.5912C150.608 24.0276 150.448 24.464 150.289 24.9003C150.199 25.1467 150.109 25.3931 150.019 25.6395C149.945 25.8406 149.872 26.0417 149.798 26.2428C149.764 26.3369 149.729 26.431 149.695 26.5251C149.653 26.6396 149.611 26.7541 149.569 26.8687C149.542 26.9449 149.542 26.9449 149.513 27.0227C149.497 27.0666 149.481 27.1105 149.465 27.1558C149.415 27.294 149.369 27.4332 149.323 27.5724C152.63 27.5724 155.937 27.5724 159.345 27.5724C159.123 26.9365 158.903 26.303 158.664 25.6738C158.553 25.3785 158.441 25.083 158.33 24.7875C158.311 24.736 158.291 24.6846 158.272 24.6316C158.033 23.9951 157.799 23.3568 157.565 22.7184C157.378 22.207 157.19 21.6959 156.999 21.1856C156.071 18.6959 155.193 16.1886 154.358 13.6663C154.342 13.6663 154.326 13.6663 154.31 13.6663Z" fill="#FDFFFF"/>
<path d="M126.066 12.2278C137.033 12.2278 137.033 12.2278 139.148 14.3017C139.508 14.6653 139.806 15.0496 140.068 15.4885C140.087 15.5206 140.106 15.5527 140.126 15.5858C141.173 17.365 141.401 19.6634 140.917 21.6537C140.585 22.9175 140.009 23.9801 139.109 24.9351C139.08 24.9669 139.051 24.9987 139.022 25.0315C138.349 25.7479 137.436 26.2379 136.519 26.5654C136.472 26.5831 136.424 26.6007 136.375 26.6188C136.039 26.7329 135.696 26.7999 135.348 26.8621C135.303 26.8702 135.259 26.8782 135.213 26.8864C134.629 26.9851 134.043 27.0042 133.451 27.0025C133.387 27.0024 133.322 27.0024 133.257 27.0025C133.085 27.0025 132.914 27.0022 132.742 27.0019C132.58 27.0016 132.418 27.0016 132.257 27.0015C131.785 27.0013 131.314 27.0006 130.843 27C129.262 26.9985 129.262 26.9985 127.648 26.997C127.648 30.1935 127.648 33.39 127.648 36.6833C127.126 36.6833 126.604 36.6833 126.066 36.6833C126.066 28.613 126.066 20.5427 126.066 12.2278ZM127.648 13.6663C127.648 17.5749 127.648 21.4835 127.648 25.5105C128.746 25.5135 129.844 25.5164 130.975 25.5195C131.32 25.5208 131.665 25.5221 132.021 25.5235C132.333 25.5239 132.333 25.5239 132.646 25.5242C132.784 25.5244 132.922 25.5249 133.06 25.5257C134.669 25.5345 136.256 25.353 137.526 24.2637C137.575 24.2233 137.623 24.1829 137.672 24.1412C138.801 23.1683 139.361 21.7696 139.525 20.3137C139.618 19.0243 139.437 17.8058 138.869 16.6394C138.847 16.5928 138.825 16.5462 138.802 16.4981C138.18 15.2689 137.036 14.4269 135.755 13.987C134.936 13.7198 134.097 13.6583 133.239 13.6609C133.177 13.6609 133.115 13.6609 133.052 13.6609C132.886 13.6609 132.721 13.6611 132.556 13.6615C132.4 13.6618 132.244 13.6618 132.088 13.6618C131.634 13.6621 131.18 13.6627 130.726 13.6633C129.711 13.6643 128.695 13.6653 127.648 13.6663Z" fill="#FDFFFF"/>
<path d="M166.298 12.2278C167.936 12.0612 167.936 12.0612 168.369 12.3189C168.605 12.5562 168.742 12.8433 168.874 13.1477C168.96 13.3369 169.073 13.4966 169.196 13.6633C169.238 13.7245 169.28 13.7857 169.322 13.8471C169.492 14.0931 169.663 14.3382 169.834 14.5834C170.118 14.9908 170.399 15.4001 170.678 15.8109C170.928 16.1782 171.182 16.543 171.436 16.9074C171.716 17.309 171.992 17.7128 172.268 18.1172C172.382 18.2831 172.495 18.4488 172.609 18.6144C172.631 18.6455 172.652 18.6766 172.674 18.7087C172.717 18.7709 172.76 18.8332 172.803 18.8954C172.932 19.0827 173.06 19.2701 173.189 19.4574C173.298 19.6165 173.408 19.7755 173.518 19.9344C173.829 20.3859 174.136 20.8401 174.441 21.2967C174.463 21.3309 174.486 21.3652 174.51 21.4004C175.144 22.3538 175.75 23.318 176.32 24.3117C176.37 24.2308 176.42 24.1498 176.47 24.0689C176.488 24.0395 176.506 24.0102 176.525 23.9799C176.634 23.8029 176.741 23.6252 176.848 23.4469C177.227 22.8154 177.626 22.201 178.037 21.5902C178.198 21.3513 178.355 21.1107 178.51 20.8681C178.796 20.4226 179.096 19.9866 179.396 19.5501C179.506 19.3897 179.615 19.2292 179.725 19.0686C179.827 18.9194 179.929 18.7702 180.032 18.6211C180.135 18.4701 180.238 18.3191 180.341 18.1681C180.419 18.0543 180.497 17.9405 180.575 17.8267C180.68 17.673 180.785 17.5193 180.89 17.3656C181.154 16.9801 181.418 16.5949 181.683 16.2102C181.931 15.849 182.179 15.4871 182.426 15.1252C182.582 14.8967 182.739 14.6683 182.895 14.4399C183.026 14.2483 183.157 14.0567 183.288 13.8651C183.443 13.6389 183.597 13.4128 183.752 13.1868C183.777 13.1501 183.803 13.1133 183.828 13.0755C183.901 12.9697 183.973 12.864 184.046 12.7582C184.068 12.7268 184.089 12.6953 184.111 12.6629C184.167 12.5815 184.223 12.5005 184.28 12.4196C184.297 12.3851 184.314 12.3507 184.332 12.3152C184.455 12.1976 184.56 12.206 184.725 12.206C184.785 12.2075 184.785 12.2075 184.847 12.209C184.909 12.2094 184.909 12.2094 184.972 12.2099C185.104 12.2109 185.236 12.2133 185.368 12.2158C185.457 12.2167 185.547 12.2176 185.636 12.2184C185.855 12.2205 186.074 12.2238 186.294 12.2278C186.231 12.4011 186.154 12.5416 186.048 12.6917C186.017 12.7348 185.987 12.7779 185.956 12.8223C185.923 12.8684 185.89 12.9145 185.856 12.962C185.54 13.4105 185.233 13.8634 184.931 14.3216C184.753 14.591 184.568 14.8536 184.377 15.1139C184.207 15.3499 184.044 15.5917 183.881 15.8332C183.809 15.9392 183.737 16.0452 183.666 16.1512C183.631 16.2021 183.597 16.253 183.561 16.3054C183.436 16.4901 183.309 16.6743 183.183 16.8581C183.152 16.9031 183.152 16.9031 183.12 16.9489C183.08 17.0079 183.039 17.0669 182.998 17.1258C182.89 17.2833 182.782 17.4408 182.673 17.5984C182.543 17.7885 182.412 17.9787 182.281 18.1688C182.044 18.5138 181.807 18.8591 181.57 19.2048C181.27 19.6439 180.969 20.0823 180.667 20.5205C180.408 20.8968 180.15 21.2733 179.892 21.6503C179.592 22.0895 179.291 22.5279 178.989 22.9661C178.704 23.3807 178.419 23.7957 178.135 24.2112C177.94 24.4968 177.744 24.7821 177.547 25.0669C177.527 25.0959 177.507 25.1249 177.487 25.1548C177.47 25.1796 177.453 25.2045 177.435 25.23C177.415 25.2593 177.395 25.2885 177.375 25.3187C177.342 25.3586 177.31 25.3985 177.277 25.4396C177.155 25.6562 177.156 25.8175 177.158 26.0615C177.158 26.107 177.157 26.1525 177.157 26.1993C177.156 26.3515 177.156 26.5037 177.157 26.6559C177.156 26.7651 177.156 26.8742 177.155 26.9834C177.154 27.2797 177.154 27.576 177.154 27.8723C177.154 28.182 177.152 28.4917 177.151 28.8014C177.149 29.3211 177.148 29.8409 177.148 30.3607C177.147 30.896 177.146 31.4313 177.145 31.9665C177.145 31.9996 177.145 32.0326 177.145 32.0666C177.144 32.2322 177.144 32.3978 177.143 32.5634C177.139 33.9367 177.137 35.31 177.135 36.6833C176.613 36.6833 176.09 36.6833 175.552 36.6833C175.553 36.5468 175.554 36.4104 175.554 36.2698C175.559 35.0157 175.562 33.7615 175.561 32.5074C175.561 32.3427 175.561 32.1781 175.561 32.0134C175.561 31.9642 175.561 31.9642 175.561 31.914C175.561 31.3846 175.563 30.8552 175.565 30.3258C175.568 29.7817 175.568 29.2377 175.567 28.6937C175.566 28.3884 175.567 28.0832 175.569 27.778C175.571 27.4902 175.571 27.2024 175.569 26.9146C175.569 26.8095 175.57 26.7043 175.571 26.5992C175.581 25.9208 175.491 25.4952 175.047 24.9726C174.925 24.8237 174.82 24.6632 174.713 24.5035C174.689 24.4676 174.664 24.4318 174.639 24.3949C174.534 24.2433 174.43 24.0916 174.326 23.9399C174.069 23.5652 173.81 23.1919 173.55 22.8192C173.266 22.4117 172.985 22.0022 172.706 21.5914C172.49 21.2739 172.272 20.9583 172.052 20.6434C171.707 20.1494 171.368 19.6522 171.029 19.1542C170.706 18.6794 170.378 18.2075 170.05 17.7363C169.766 17.3288 169.485 16.9193 169.206 16.5085C168.99 16.191 168.771 15.8754 168.551 15.5604C168.272 15.1593 167.995 14.7562 167.72 14.3516C167.497 14.0237 167.271 13.6979 167.044 13.3726C166.298 12.3024 166.298 12.3024 166.298 12.2278Z" fill="#FDFFFF"/>
</svg>
