<svg width="137" height="24" viewBox="0 0 137 24" fill="none" xmlns="http://www.w3.org/2000/svg">
<path d="M9.653 5.408C10.92 3.136 11.553 2 12.5 2C13.447 2 14.08 3.136 15.347 5.408L15.675 5.996C16.035 6.642 16.215 6.965 16.495 7.178C16.775 7.391 17.125 7.47 17.825 7.628L18.461 7.772C20.921 8.329 22.15 8.607 22.443 9.548C22.735 10.488 21.897 11.469 20.22 13.43L19.786 13.937C19.31 14.494 19.071 14.773 18.964 15.117C18.857 15.462 18.893 15.834 18.965 16.577L19.031 17.254C19.284 19.871 19.411 21.179 18.645 21.76C17.879 22.341 16.727 21.811 14.425 20.751L13.828 20.477C13.174 20.175 12.847 20.025 12.5 20.025C12.153 20.025 11.826 20.175 11.172 20.477L10.576 20.751C8.273 21.811 7.121 22.341 6.356 21.761C5.589 21.179 5.716 19.871 5.969 17.254L6.035 16.578C6.107 15.834 6.143 15.462 6.035 15.118C5.929 14.773 5.69 14.494 5.214 13.938L4.78 13.43C3.103 11.47 2.265 10.489 2.557 9.548C2.849 8.607 4.08 8.328 6.54 7.772L7.176 7.628C7.875 7.47 8.224 7.391 8.505 7.178C8.786 6.965 8.965 6.642 9.325 5.996L9.653 5.408Z" fill="#FFCC00"/>
<path d="M37.653 5.408C38.92 3.136 39.553 2 40.5 2C41.447 2 42.08 3.136 43.347 5.408L43.675 5.996C44.035 6.642 44.215 6.965 44.495 7.178C44.775 7.391 45.125 7.47 45.825 7.628L46.461 7.772C48.921 8.329 50.15 8.607 50.443 9.548C50.735 10.488 49.897 11.469 48.22 13.43L47.786 13.937C47.31 14.494 47.071 14.773 46.964 15.117C46.857 15.462 46.893 15.834 46.965 16.577L47.031 17.254C47.284 19.871 47.411 21.179 46.645 21.76C45.879 22.341 44.727 21.811 42.425 20.751L41.828 20.477C41.174 20.175 40.847 20.025 40.5 20.025C40.153 20.025 39.826 20.175 39.172 20.477L38.576 20.751C36.273 21.811 35.121 22.341 34.356 21.761C33.589 21.179 33.716 19.871 33.969 17.254L34.035 16.578C34.107 15.834 34.143 15.462 34.035 15.118C33.929 14.773 33.69 14.494 33.214 13.938L32.78 13.43C31.103 11.47 30.265 10.489 30.557 9.548C30.849 8.607 32.08 8.328 34.54 7.772L35.176 7.628C35.875 7.47 36.224 7.391 36.505 7.178C36.786 6.965 36.965 6.642 37.325 5.996L37.653 5.408Z" fill="#FFCC00"/>
<path d="M65.653 5.408C66.92 3.136 67.553 2 68.5 2C69.447 2 70.08 3.136 71.347 5.408L71.675 5.996C72.035 6.642 72.215 6.965 72.495 7.178C72.775 7.391 73.125 7.47 73.825 7.628L74.461 7.772C76.921 8.329 78.15 8.607 78.443 9.548C78.735 10.488 77.897 11.469 76.22 13.43L75.786 13.937C75.31 14.494 75.071 14.773 74.964 15.117C74.857 15.462 74.893 15.834 74.965 16.577L75.031 17.254C75.284 19.871 75.411 21.179 74.645 21.76C73.879 22.341 72.727 21.811 70.425 20.751L69.828 20.477C69.174 20.175 68.847 20.025 68.5 20.025C68.153 20.025 67.826 20.175 67.172 20.477L66.576 20.751C64.273 21.811 63.121 22.341 62.356 21.761C61.589 21.179 61.716 19.871 61.969 17.254L62.035 16.578C62.107 15.834 62.143 15.462 62.035 15.118C61.929 14.773 61.69 14.494 61.214 13.938L60.78 13.43C59.103 11.47 58.265 10.489 58.557 9.548C58.849 8.607 60.08 8.328 62.54 7.772L63.176 7.628C63.875 7.47 64.224 7.391 64.505 7.178C64.786 6.965 64.965 6.642 65.325 5.996L65.653 5.408Z" fill="#FFCC00"/>
<path d="M93.653 5.408C94.92 3.136 95.553 2 96.5 2C97.447 2 98.08 3.136 99.347 5.408L99.675 5.996C100.035 6.642 100.215 6.965 100.495 7.178C100.775 7.391 101.125 7.47 101.825 7.628L102.461 7.772C104.921 8.329 106.15 8.607 106.443 9.548C106.735 10.488 105.897 11.469 104.22 13.43L103.786 13.937C103.31 14.494 103.071 14.773 102.964 15.117C102.857 15.462 102.893 15.834 102.965 16.577L103.031 17.254C103.284 19.871 103.411 21.179 102.645 21.76C101.879 22.341 100.727 21.811 98.425 20.751L97.828 20.477C97.174 20.175 96.847 20.025 96.5 20.025C96.153 20.025 95.826 20.175 95.172 20.477L94.576 20.751C92.273 21.811 91.121 22.341 90.356 21.761C89.589 21.179 89.716 19.871 89.969 17.254L90.035 16.578C90.107 15.834 90.143 15.462 90.035 15.118C89.929 14.773 89.69 14.494 89.214 13.938L88.78 13.43C87.103 11.47 86.265 10.489 86.557 9.548C86.849 8.607 88.08 8.328 90.54 7.772L91.176 7.628C91.875 7.47 92.224 7.391 92.505 7.178C92.786 6.965 92.965 6.642 93.325 5.996L93.653 5.408Z" fill="#FFCC00"/>
<path d="M121.653 5.408C122.92 3.136 123.553 2 124.5 2C125.447 2 126.08 3.136 127.347 5.408L127.675 5.996C128.035 6.642 128.215 6.965 128.495 7.178C128.775 7.391 129.125 7.47 129.825 7.628L130.461 7.772C132.921 8.329 134.15 8.607 134.443 9.548C134.735 10.488 133.897 11.469 132.22 13.43L131.786 13.937C131.31 14.494 131.071 14.773 130.964 15.117C130.857 15.462 130.893 15.834 130.965 16.577L131.031 17.254C131.284 19.871 131.411 21.179 130.645 21.76C129.879 22.341 128.727 21.811 126.425 20.751L125.828 20.477C125.174 20.175 124.847 20.025 124.5 20.025C124.153 20.025 123.826 20.175 123.172 20.477L122.576 20.751C120.273 21.811 119.121 22.341 118.356 21.761C117.589 21.179 117.716 19.871 117.969 17.254L118.035 16.578C118.107 15.834 118.143 15.462 118.035 15.118C117.929 14.773 117.69 14.494 117.214 13.938L116.78 13.43C115.103 11.47 114.265 10.489 114.557 9.548C114.849 8.607 116.08 8.328 118.54 7.772L119.176 7.628C119.875 7.47 120.224 7.391 120.505 7.178C120.786 6.965 120.965 6.642 121.325 5.996L121.653 5.408Z" fill="#FFCC00"/>
</svg>
